<?xml version="1.0" standalone="no"?>
<!DOCTYPE svg PUBLIC "-//W3C//DTD SVG 1.1//EN" "http://www.w3.org/Graphics/SVG/1.1/DTD/svg11.dtd" >
<svg xmlns="http://www.w3.org/2000/svg">
<metadata></metadata>
<defs>
<font id="allerregular" horiz-adv-x="1240" >
<font-face units-per-em="2048" ascent="1638" descent="-410" />
<missing-glyph horiz-adv-x="489" />
<glyph unicode="&#xfb01;" horiz-adv-x="1246" d="M56 981q0 45 8 81h174v73q0 197 117 299.5t322 102.5q83 0 150 -10.5t152 -38.5q0 -48 -15 -91t-35 -77q-61 25 -112 35.5t-124 10.5q-54 0 -99.5 -10t-78.5 -35.5t-53 -72t-20 -119.5v-67h640v-1062q-24 -4 -51.5 -6t-49.5 -2q-24 0 -51.5 2t-50.5 6v900h-437v-900 q-23 -4 -50.5 -6t-50.5 -2t-51.5 2t-51.5 6v900h-174q-8 33 -8 81z" />
<glyph unicode="&#xfb02;" horiz-adv-x="1308" d="M56 981q0 39 6 81h176v73q0 197 120 299.5t351 102.5q105 0 187.5 -11.5t160.5 -25.5v-1119q0 -81 8.5 -126.5t24 -69t40 -28.5t56.5 -5q20 0 42.5 2t39.5 6q12 -36 16.5 -76.5t4.5 -81.5q-32 -10 -72 -13t-76 -3q-68 0 -121.5 15t-90.5 55.5t-56 108.5t-19 172v1015 q-35 8 -78.5 12t-78.5 4q-56 0 -103.5 -11t-81.5 -36.5t-53 -72t-19 -119.5v-67h253q6 -44 6 -85q0 -42 -6 -79h-253v-898q-23 -4 -50.5 -5t-50.5 -1t-50.5 1t-50.5 5v898h-176q-6 39 -6 83z" />
<glyph unicode="&#xfb03;" horiz-adv-x="1891" d="M56 981q0 45 8 81h174v63q0 197 97 299t281 102q54 0 100 -7t80 -17q-6 -54 -20 -91t-32 -75q-18 6 -44.5 11t-64.5 5q-43 0 -79.5 -9t-61 -34.5t-38.5 -71t-14 -118.5v-57h448v73q0 197 116.5 299.5t321.5 102.5q83 0 150 -10.5t152 -38.5q0 -48 -14.5 -91t-32.5 -77 q-64 25 -115 35.5t-124 10.5q-53 0 -98.5 -10t-79 -35.5t-53 -72t-19.5 -119.5v-67h639v-1062q-23 -4 -51 -6t-50 -2q-23 0 -51 2t-50 6v900h-437v-900q-23 -4 -50.5 -6t-50.5 -2t-52 2t-51 6v900h-448v-900q-23 -4 -50.5 -6t-50.5 -2t-51.5 2t-51.5 6v900h-174q-8 33 -8 81 z" />
<glyph unicode="&#xfb04;" horiz-adv-x="1960" d="M56 981q0 39 6 81h176v61q0 197 97 299t281 102q54 0 100 -6t80 -16q-8 -54 -21 -92t-31 -74q-20 4 -46.5 10t-62.5 6q-43 0 -79.5 -10t-61 -36.5t-39.5 -72t-15 -116.5v-55h450v73q0 197 119.5 299.5t351.5 102.5q106 0 187.5 -11.5t160.5 -25.5v-1119q0 -81 8 -126.5 t23.5 -69t40.5 -28.5t56 -5q20 0 43 2t40 6q12 -36 16 -78.5t4 -79.5q-29 -10 -70.5 -13t-75.5 -3q-69 0 -122.5 15t-91 55.5t-56 108.5t-18.5 172v1015q-35 8 -78.5 12t-79.5 4q-55 0 -102.5 -11t-82 -36.5t-53 -72t-18.5 -119.5v-67h252q6 -44 6 -85q0 -42 -6 -79h-252 v-898q-23 -4 -50.5 -5t-50.5 -1t-51 1t-50 5v898h-450v-898q-23 -4 -50.5 -5t-50.5 -1t-50.5 1t-50.5 5v898h-176q-6 39 -6 83z" />
<glyph horiz-adv-x="2048" />
<glyph horiz-adv-x="2048" />
<glyph unicode="&#xd;" horiz-adv-x="1034" />
<glyph unicode=" "  horiz-adv-x="489" />
<glyph unicode="&#x09;" horiz-adv-x="489" />
<glyph unicode="&#xa0;" horiz-adv-x="489" />
<glyph unicode="!" horiz-adv-x="598" d="M176 114q0 29 2 59t6 58q29 4 57 6.5t57 2.5t59 -2.5t59 -6.5q4 -29 6 -58t2 -57q0 -29 -2 -58t-6 -58q-29 -4 -58 -6t-58 -2t-58 2t-58 6q-4 29 -6 57t-2 57zM192 1488q27 4 53 6t53 2q29 0 58 -2t58 -6l-13 -1042q-47 -8 -97 -8q-56 0 -97 8z" />
<glyph unicode="&#x22;" horiz-adv-x="868" d="M132 920v568q24 4 49.5 6t49.5 2q26 0 50.5 -2t47.5 -6v-568q-47 -6 -98 -6q-53 0 -99 6zM537 920v568q24 4 49.5 6t49.5 2q26 0 50.5 -2t47.5 -6v-568q-47 -6 -98 -6q-53 0 -99 6z" />
<glyph unicode="#" horiz-adv-x="1520" d="M130 509q0 23 2 45.5t6 41.5h269l29 341h-256q-8 34 -8 81q0 46 8 80h268l30 329q25 4 47.5 5t49.5 1h43.5t43.5 -4l-27 -331h352l29 329q25 4 47.5 5t49.5 1h44.5t44.5 -4l-29 -331h242q6 -38 6 -74q0 -47 -6 -87h-255l-29 -341h241q4 -16 6 -37.5t2 -39.5q0 -23 -2 -46 t-6 -41h-255l-31 -372q-48 -6 -91 -6q-48 0 -91 6l29 372h-352l-29 -372q-49 -6 -96 -6q-44 0 -94 6l31 372h-257q-6 38 -6 77zM594 596h351l30 341h-355z" />
<glyph unicode="$" d="M156 39q4 46 17 92.5t30 89.5q71 -23 145 -40t179 -17q170 0 253 66t83 182q0 58 -18 97t-52.5 68t-89 52.5t-126.5 55.5l-99 41q-62 25 -114 56t-90.5 73.5t-58.5 100.5t-20 138q0 159 96 260.5t276 126.5v201q31 8 70 8q42 0 75 -8v-192q87 -4 170.5 -19t143.5 -38 q-10 -87 -45 -172q-56 21 -128.5 36.5t-167.5 15.5q-131 0 -201 -49.5t-70 -152.5q0 -49 18 -85.5t54.5 -64.5t87 -50.5t115.5 -49.5l79 -34q74 -31 134 -64t102 -78.5t66 -107.5t24 -151q0 -176 -100 -286.5t-282 -145.5v-238q-16 -4 -35 -6t-36 -2q-18 0 -36.5 2t-37.5 6 v221q-10 -2 -16.5 -2h-13.5q-63 0 -114.5 4.5t-96 12.5t-86 20.5t-84.5 26.5z" />
<glyph unicode="%" horiz-adv-x="2171" d="M91 1048q0 89 23.5 169t71 140t121.5 95.5t173 35.5t171.5 -35.5t121 -95.5t72 -140t23.5 -169q0 -91 -23.5 -170t-72 -138t-121 -94.5t-171.5 -35.5t-173 35.5t-121.5 94.5t-71 138t-23.5 170zM281 1048q0 -138 46.5 -213t152.5 -75q101 0 150 75t49 213 q0 137 -47 212.5t-152 75.5q-101 0 -150 -75t-49 -213zM486 2l999 1462q25 5 51 7t51 2q27 0 55 -2t52 -7l-999 -1462q-29 -4 -53.5 -6t-49.5 -2q-57 0 -106 8zM1291 415q0 89 23.5 169t71 140t121.5 95.5t173 35.5t171.5 -35.5t121 -95.5t72 -140t23.5 -169 q0 -91 -23.5 -170t-72 -138t-121 -94.5t-171.5 -35.5t-173 35.5t-121.5 94.5t-71 138t-23.5 170zM1481 415q0 -138 46.5 -213t152.5 -75q101 0 150 75t49 213q0 137 -47 212.5t-152 75.5q-101 0 -150 -75t-49 -213z" />
<glyph unicode="&#x26;" horiz-adv-x="1573" d="M120 422q0 69 20 134.5t55.5 122.5t84.5 99.5t105 65.5q-89 40 -150 113t-61 197q0 91 35 158.5t95 112t141.5 66t172.5 21.5q54 0 120.5 -8t138.5 -33q-2 -48 -12.5 -84.5t-33.5 -70.5q-53 16 -102.5 23t-97.5 7q-68 0 -114.5 -17.5t-76.5 -45.5t-43.5 -62.5 t-13.5 -72.5q0 -89 59 -142t189 -53h451l191 261h16v-261h268q9 -35 9 -80q0 -24 -2.5 -45t-6.5 -42h-268v-306q0 -126 -43.5 -221t-124.5 -158.5t-193.5 -94.5t-248.5 -31q-110 0 -211.5 25t-179 78.5t-123 138.5t-45.5 205zM347 456q0 -143 89 -218.5t259 -75.5 q120 0 198 30.5t121 82.5t59.5 120.5t16.5 139.5v247h-419q-75 0 -135 -26t-101.5 -71.5t-64.5 -104.5t-23 -124z" />
<glyph unicode="'" horiz-adv-x="460" d="M132 920v568q24 4 49.5 6t49.5 2q26 0 50.5 -2t47.5 -6v-568q-47 -6 -98 -6q-53 0 -99 6z" />
<glyph unicode="(" horiz-adv-x="659" d="M103 629q0 164 21.5 310.5t57 270.5t80 223.5t92.5 171.5q16 4 42 6t54 2q30 0 56.5 -2t50.5 -6q-26 -44 -67.5 -127.5t-81 -206.5t-69 -283.5t-29.5 -358.5q0 -197 29.5 -358t69 -283t81 -206t67.5 -127q-24 -4 -52.5 -6.5t-58.5 -2.5q-27 0 -51.5 2.5t-40.5 6.5 q-48 70 -92.5 170t-80 224.5t-57 270.5t-21.5 309z" />
<glyph unicode=")" horiz-adv-x="659" d="M103 -345q25 43 66.5 127t82 206t69 283t28.5 358q0 199 -28.5 359t-69 283t-82 206.5t-66.5 127.5q23 4 50 6t56 2t55 -2t42 -6q45 -73 90.5 -172t81 -223t57.5 -271t22 -310t-22 -309t-57.5 -270.5t-81 -224.5t-90.5 -170q-16 -4 -41 -6.5t-52 -2.5q-29 0 -58 2.5 t-52 6.5z" />
<glyph unicode="*" horiz-adv-x="1002" d="M79 1137q8 64 41 122l259 -67q-12 -83 -48 -154zM203 770l144 225q34 -16 66.5 -40t64.5 -53l-172 -209q-29 16 -55 33.5t-48 43.5zM422 1218l16 270q32 6 63 6t66 -6l17 -270q-23 -4 -43 -5t-40 -1t-40.5 1t-38.5 5zM525 902q32 29 64.5 53t65.5 40l146 -225 q-23 -26 -49 -43.5t-55 -33.5zM624 1192l259 67q33 -57 41 -122l-251 -99q-36 71 -49 154z" />
<glyph unicode="+" d="M178 728q0 50 8 91h343v377q23 4 45 6t46 2q23 0 46 -2t48 -6v-377h340q4 -23 7 -46t3 -45q0 -23 -2.5 -46.5t-7.5 -46.5h-340v-374q-25 -4 -48 -6.5t-46 -2.5q-51 0 -91 9v374h-343q-8 42 -8 93z" />
<glyph unicode="," horiz-adv-x="440" d="M41 -233l123 460q25 4 50.5 7.5t48.5 3.5q47 0 106 -11l-131 -460q-25 -4 -50.5 -5.5t-49.5 -1.5q-25 0 -49.5 1t-47.5 6z" />
<glyph unicode="-" horiz-adv-x="746" d="M97 579q0 23 2 48.5t6 47.5h536q4 -21 6 -47t2 -49t-2 -48.5t-6 -44.5h-536q-4 18 -6 44.5t-2 48.5z" />
<glyph unicode="." horiz-adv-x="497" d="M124 114q0 29 3 59t7 58q30 4 57.5 6.5t56.5 2.5q30 0 58.5 -2.5t57.5 -6.5q4 -29 7.5 -58t3.5 -57q0 -29 -3 -58t-8 -58q-30 -4 -57.5 -6t-56.5 -2t-57.5 2t-58.5 6q-4 29 -7 57t-3 57z" />
<glyph unicode="/" horiz-adv-x="847" d="M73 0l502 1488q25 4 48.5 6t51.5 2q23 0 48 -2t53 -6l-505 -1488q-26 -4 -50 -6t-51 -2q-24 0 -48.5 2t-48.5 6z" />
<glyph unicode="0" d="M101 664q0 151 33.5 277.5t98.5 218t163 143t228 51.5t228.5 -51.5t164 -143t97.5 -218t32 -277.5q0 -149 -33 -276t-98.5 -218t-165 -143t-229.5 -52t-227 52t-162 143t-97.5 218t-32.5 276zM318 664q0 -257 81 -381.5t223 -124.5q143 0 221.5 124.5t78.5 381.5 q0 256 -78.5 382.5t-221.5 126.5q-142 0 -223 -126.5t-81 -382.5z" />
<glyph unicode="1" d="M205 1082l550 262h31v-1168h296q6 -48 6 -87q0 -44 -6 -89h-809q-8 41 -8 89q0 45 8 87h311v890l-300 -137q-29 36 -46 70.5t-33 82.5z" />
<glyph unicode="2" d="M118 27l405 474q54 64 101 121t80.5 110.5t53.5 105.5t20 107q0 110 -70.5 168t-200.5 58q-99 0 -167.5 -23t-132.5 -52q-16 41 -31.5 84.5t-19.5 89.5q72 31 159.5 57.5t205.5 26.5q105 0 192.5 -23.5t150.5 -71t97 -120.5t34 -173q0 -139 -76.5 -269t-217.5 -290 l-198 -225h547q4 -23 6.5 -45.5t2.5 -47.5q0 -23 -2.5 -46t-6.5 -43h-920z" />
<glyph unicode="3" d="M99 -83q6 46 23.5 89t41.5 85q66 -27 138.5 -43.5t165.5 -16.5q78 0 147.5 16.5t120 53.5t80.5 96.5t30 143.5q0 129 -84.5 191t-221.5 62q-41 0 -83.5 -3t-83.5 -14l-17 29l345 544h-531q-8 42 -8 89q0 23 2 47.5t6 47.5h837l15 -25l-377 -573q6 2 15 2h17 q97 0 168 -33.5t117.5 -88.5t69 -122.5t22.5 -133.5q0 -133 -46 -229t-124.5 -159t-184 -93.5t-225.5 -30.5q-103 0 -194.5 17t-180.5 52z" />
<glyph unicode="4" d="M69 184l606 1188q43 -4 89.5 -22t89.5 -47l-481 -960h417v393q25 4 50 6t48 2q27 0 52.5 -2t50.5 -6v-393h190q4 -23 6.5 -45.5t2.5 -45.5t-2 -46.5t-7 -43.5h-190v-284q-27 -4 -51 -5t-48 -1q-25 0 -51 1t-51 5v284h-705z" />
<glyph unicode="5" d="M130 -91q6 46 21 88t37 86q63 -23 126 -36.5t150 -13.5q179 0 277 75.5t98 234.5q0 58 -17 110t-56.5 90t-102.5 59.5t-154 21.5q-64 0 -126.5 -10t-109.5 -26l-21 18q7 182 14 363t16 365h703q4 -23 5 -44.5t1 -44.5q0 -25 -1 -48.5t-5 -46.5h-517l-12 -368q39 8 79 10 t63 2q103 0 188 -29t145 -86t93 -138.5t33 -186.5q0 -131 -45.5 -226t-125 -157t-188 -92.5t-234.5 -30.5q-79 0 -169 15t-165 46z" />
<glyph unicode="6" d="M136 573q0 181 46.5 343t143 288t245.5 206t353 96q16 -50 17 -95q0 -20 -2 -41.5t-6 -37.5q-130 -12 -230.5 -61t-172.5 -125t-116.5 -176.5t-64.5 -214.5q46 79 134 135.5t220 56.5q83 0 162.5 -27.5t142 -85.5t99.5 -148t37 -214q0 -123 -42.5 -215.5t-113 -155 t-160.5 -94.5t-185 -32q-118 0 -212 34t-159 106.5t-100.5 185t-35.5 272.5zM360 462q0 -156 73.5 -232t203.5 -76q62 0 115 20.5t92 59.5t62 97t23 135q0 82 -21.5 140t-59 95t-88.5 55t-109 18q-59 0 -113 -21t-93.5 -61.5t-62 -98.5t-22.5 -131z" />
<glyph unicode="7" d="M136 1237q0 25 2 49.5t6 47.5h983l8 -14l-628 -1474q-56 13 -102.5 33t-90.5 54l530 1217h-700q-4 21 -6 42.5t-2 44.5z" />
<glyph unicode="8" d="M110 381q0 87 28 152t72.5 114.5t98 84t107.5 56.5q-99 47 -168.5 131t-69.5 210q0 81 34 147t93 112.5t139.5 73t175.5 26.5t176 -26.5t140 -73t93.5 -112.5t34.5 -147q0 -128 -70 -211t-171 -130q54 -23 109 -56t99.5 -82.5t72 -115.5t27.5 -153q0 -110 -43.5 -187.5 t-115.5 -126.5t-164 -70.5t-188 -21.5q-97 0 -188 21.5t-163 70.5t-115.5 126.5t-43.5 187.5zM329 399q0 -116 74.5 -181.5t216.5 -65.5q145 0 218.5 66t73.5 181q0 58 -22.5 105.5t-62 85t-92.5 65.5t-115 46q-61 -18 -115.5 -46t-92 -65.5t-60.5 -84.5t-23 -106zM379 1115 q0 -51 19.5 -91.5t52.5 -70t77.5 -51t91.5 -35.5q50 14 94 35.5t76.5 51t52.5 70t20 91.5q0 93 -61.5 149t-181.5 56t-180.5 -56t-60.5 -149z" />
<glyph unicode="9" d="M110 852q0 123 42.5 215.5t112.5 156t160 95t185 31.5q118 0 212 -33.5t159 -106.5t100.5 -186.5t35.5 -271.5q0 -181 -46.5 -342.5t-143 -287.5t-245.5 -206t-353 -96q-16 40 -17 97q0 16 2 38t6 41q126 10 228.5 58.5t177.5 125.5t119.5 177.5t56.5 213.5 q-44 -79 -131.5 -136.5t-220.5 -57.5q-84 0 -163 27.5t-141 85.5t-99 148t-37 214zM325 858q0 -82 22 -140t58.5 -95t87.5 -54t109 -17q60 0 114 21t93 61.5t62 98t23 130.5q0 155 -74 232.5t-204 77.5q-124 0 -207.5 -79.5t-83.5 -235.5z" />
<glyph unicode=":" horiz-adv-x="497" d="M124 114q0 29 3 59t7 58q30 4 57.5 6.5t56.5 2.5q30 0 58.5 -2.5t57.5 -6.5q4 -29 7.5 -58t3.5 -57q0 -29 -3 -58t-8 -58q-30 -4 -57.5 -6t-56.5 -2t-57.5 2t-58.5 6q-4 29 -7 57t-3 57zM124 947q0 29 3 59t7 58q30 4 57.5 6.5t56.5 2.5q30 0 58.5 -2.5t57.5 -6.5 q4 -29 7.5 -58t3.5 -57q0 -29 -3 -58t-8 -58q-30 -4 -57.5 -6t-56.5 -2t-57.5 2t-58.5 6q-4 29 -7 57t-3 57z" />
<glyph unicode=";" horiz-adv-x="537" d="M59 -233l123 460q25 4 50.5 7.5t48.5 3.5q47 0 106 -11l-131 -460q-25 -4 -50.5 -5.5t-49.5 -1.5q-25 0 -49.5 1t-47.5 6zM161 947q0 29 3 59t7 58q30 4 57.5 6.5t56.5 2.5q30 0 58.5 -2.5t57.5 -6.5q4 -29 7.5 -58t3.5 -57q0 -29 -3 -58t-8 -58q-30 -4 -57.5 -6 t-56.5 -2t-57.5 2t-58.5 6q-4 29 -7 57t-3 57z" />
<glyph unicode="&#x3c;" d="M184 716q0 56 13 105l860 350q11 -58 11 -95q0 -30 -2 -55.5t-7 -45.5l-678 -263l678 -252q5 -24 7 -48.5t2 -49.5q0 -32 -2 -58.5t-9 -51.5l-860 350q-12 51 -13 114z" />
<glyph unicode="=" d="M176 521q0 23 1 49t5 46h877q5 -20 7 -46.5t2 -48.5q0 -23 -2 -49t-7 -44h-877q-4 18 -5 44t-1 49zM176 916q0 23 1 49t5 46h877q5 -20 7 -46.5t2 -48.5q0 -23 -2 -49t-7 -44h-877q-4 18 -5 44t-1 49z" />
<glyph unicode="&#x3e;" d="M174 1062q0 33 3 59.5t7 49.5l862 -350q4 -27 8.5 -54t4.5 -60q0 -56 -13 -105l-862 -350q-4 30 -6 53.5t-2 41.5q0 30 2 55.5t6 45.5l677 264l-677 252q-6 23 -8 48.5t-2 49.5z" />
<glyph unicode="?" horiz-adv-x="1008" d="M89 1431q49 16 91.5 28t83 18t82 9.5t88.5 3.5q245 0 370 -111t125 -293q0 -105 -42.5 -181t-99.5 -126.5t-117 -80t-97 -43.5v-213q-48 -8 -101 -8q-24 0 -48.5 2t-46.5 6v336q79 20 140.5 46t105 62t66.5 84t23 114q0 105 -79 165t-226 60q-93 0 -149.5 -13t-117.5 -37 q-18 40 -31.5 82.5t-19.5 89.5zM349 116q0 29 2.5 58t6.5 57q29 4 57.5 7.5t58.5 3.5q29 0 58 -3.5t58 -7.5q4 -29 6 -57t2 -56q0 -29 -2 -58t-6 -58q-27 -4 -56 -6t-58 -2q-30 0 -62.5 2t-55.5 6q-4 29 -6.5 57t-2.5 57z" />
<glyph unicode="@" horiz-adv-x="2096" d="M116 442q0 186 65 375.5t201.5 344t346.5 251.5t500 97q158 0 295 -42.5t239 -129.5t161.5 -218t59.5 -307q0 -128 -38.5 -252.5t-112 -223.5t-177 -160t-233.5 -61q-144 0 -227 64q-60 -36 -134.5 -56.5t-163.5 -20.5q-145 0 -233 88t-88 241q0 141 48 260t128 205 t188.5 134.5t231.5 48.5q82 0 158 -13t148 -35l-149 -738q20 -16 50.5 -21.5t58.5 -5.5q87 0 153 51t113 130t71 175.5t24 189.5q0 263 -155 399t-437 136q-215 0 -382.5 -75t-282.5 -201.5t-175 -288t-60 -333.5q0 -161 46.5 -276.5t127.5 -189t190.5 -109t235.5 -35.5 q101 0 190.5 16t160.5 43q13 -29 25.5 -65.5t20.5 -79.5q-152 -71 -401 -70q-162 0 -305 45.5t-251 139.5t-170 236.5t-62 336.5zM782 472q0 -105 46.5 -155t139.5 -50q47 0 86.5 8.5t89.5 30.5l113 596q-27 6 -49 9t-48 3q-80 0 -149.5 -34t-120.5 -94t-79.5 -140.5 t-28.5 -173.5z" />
<glyph unicode="A" horiz-adv-x="1275" d="M33 0l484 1488q27 4 58 6t64 2q30 0 60.5 -2t60.5 -6l481 -1488q-25 -4 -56 -6t-60 -2q-27 0 -55 2t-52 6l-104 343h-565l-101 -343q-27 -4 -53.5 -6t-54.5 -2q-29 0 -56.5 2t-50.5 6zM405 527h453l-227 760z" />
<glyph unicode="B" horiz-adv-x="1230" d="M184 0v1488q51 10 144.5 16t188.5 6q118 0 215 -20.5t166.5 -67t107.5 -120t38 -179.5q0 -64 -19.5 -119t-52.5 -97t-76.5 -70t-88.5 -41q58 -6 117 -31t106.5 -70.5t77 -114.5t29.5 -168q0 -120 -47.5 -204t-129 -136t-192 -74.5t-237.5 -22.5q-79 0 -171.5 7.5 t-175.5 17.5zM393 164q29 -4 73.5 -6t87.5 -2q75 0 140.5 12t114.5 42t78 80.5t29 129.5q0 77 -26.5 129.5t-73 84.5t-111 45.5t-138.5 13.5h-174v-529zM393 867h151q141 0 215 61t74 183q0 118 -79 175.5t-217 57.5q-41 0 -79 -2t-65 -6v-469z" />
<glyph unicode="C" horiz-adv-x="1277" d="M122 734q0 178 47.5 322t136.5 245.5t217 156t288 54.5q118 0 202.5 -16.5t151.5 -39.5q-5 -47 -18.5 -87.5t-31.5 -85.5q-31 10 -60 18t-62 14.5t-73.5 9.5t-92.5 3q-225 0 -350.5 -153t-125.5 -441q0 -146 35.5 -253.5t99.5 -178.5t154 -105.5t202 -34.5q87 0 157.5 14 t131.5 41q46 -89 59 -172q-87 -37 -178.5 -53.5t-196.5 -16.5q-162 0 -291 53t-218 151t-136.5 239t-47.5 316z" />
<glyph unicode="D" horiz-adv-x="1445" d="M184 0v1488q71 8 170 15t194 7q391 0 584.5 -198.5t193.5 -571.5q0 -389 -197.5 -577t-588.5 -188q-97 0 -192.5 7.5t-163.5 17.5zM395 174q29 -4 71.5 -7t90.5 -3q122 0 222 27.5t172.5 93.5t112 179t39.5 282q0 156 -39.5 265.5t-111 178.5t-170.5 100.5t-219 31.5 q-40 0 -86.5 -1t-81.5 -8v-1139z" />
<glyph unicode="E" horiz-adv-x="1107" d="M182 0v1488h817q6 -42 6 -92q0 -23 -1 -47.5t-5 -45.5h-606v-426h484q4 -21 6.5 -44.5t2.5 -46.5t-2.5 -47.5t-6.5 -45.5h-484v-509h623q6 -42 6 -91q0 -23 -1 -48t-5 -45h-834z" />
<glyph unicode="F" horiz-adv-x="1042" d="M182 0v1488h778q4 -20 6 -44.5t2 -47.5t-2 -47.5t-6 -45.5h-567v-436h474q4 -24 6 -47.5t2 -45.5q0 -24 -2 -47.5t-6 -45.5h-474v-681q-25 -4 -51 -6t-54 -2q-27 0 -55 2t-51 6z" />
<glyph unicode="G" horiz-adv-x="1407" d="M122 734q0 178 49.5 322t141.5 245.5t219.5 156t282.5 54.5q118 0 205 -15.5t157 -42.5q-4 -47 -17.5 -87.5t-32.5 -85.5q-57 18 -124.5 32.5t-169.5 14.5q-110 0 -199.5 -39.5t-152.5 -115t-98.5 -186t-35.5 -253.5q0 -146 36.5 -252.5t102.5 -178.5t156 -105.5 t200 -33.5q67 0 116 7t84 17v582q26 4 52.5 6t53.5 2q28 0 54.5 -2t48.5 -6v-727q-43 -18 -94.5 -31.5t-107.5 -20.5t-112 -11.5t-106 -4.5q-165 0 -297.5 52t-223.5 150t-139.5 239t-48.5 318z" />
<glyph unicode="H" horiz-adv-x="1418" d="M182 0v1488q25 4 52 6t54 2t54 -2t51 -6v-613h633v613q23 4 50 6t53 2q27 0 55 -2t53 -6v-1488q-23 -4 -50 -6t-56 -2q-27 0 -55 2t-50 6v689h-633v-689q-25 -4 -51 -6t-54 -2q-27 0 -55 2t-51 6z" />
<glyph unicode="I" horiz-adv-x="574" d="M182 0v1488q25 4 52 6t54 2t54 -2t51 -6v-1488q-25 -4 -51 -6t-54 -2q-27 0 -55 2t-51 6z" />
<glyph unicode="J" horiz-adv-x="819" d="M58 0q0 41 8.5 86.5t24.5 93.5q25 -6 57 -13t67 -7q37 0 75.5 6t71.5 26.5t53.5 62t20.5 111.5v937h-260q-4 20 -6 45.5t-2 47.5q0 23 2 47t6 45h471v-1074q0 -124 -26.5 -209t-78.5 -136t-126.5 -72.5t-167.5 -21.5q-49 0 -99 7.5t-91 17.5z" />
<glyph unicode="K" horiz-adv-x="1242" d="M182 0v1488q25 4 52 6t54 2t54 -2t51 -6v-1488q-25 -4 -52 -6t-53 -2q-29 0 -56 2t-50 6zM456 755l477 733q30 4 57.5 6t49.5 2q28 0 58.5 -2t64.5 -6l-472 -714l531 -774q-33 -4 -65 -6t-61 -2q-25 0 -53.5 2t-59.5 6z" />
<glyph unicode="L" horiz-adv-x="1023" d="M182 0v1488q23 4 49 6t55 2q27 0 53.5 -2t51.5 -6v-1302h584q4 -23 5 -47.5t1 -45.5q0 -50 -6 -93h-793z" />
<glyph unicode="M" horiz-adv-x="1687" d="M158 0l65 1488q25 4 57 6t61 2q30 0 63.5 -2t57.5 -6l384 -931l387 931q20 4 51.5 6t59.5 2t60.5 -2t55.5 -6l71 -1488q-25 -4 -51 -6t-53 -2t-53 2t-48 6l-47 1156l-365 -848q-41 -6 -85 -6q-39 0 -79 6l-351 855l-48 -1163q-23 -4 -47.5 -6t-46.5 -2q-28 0 -52.5 2 t-46.5 6z" />
<glyph unicode="N" horiz-adv-x="1405" d="M182 0v1488q23 4 49 6t48 2q23 0 49 -2t49 -6l647 -1117v1117q25 4 52 6t53 2q23 0 48 -2t47 -6v-1488q-23 -4 -48.5 -6t-48.5 -2t-49 2t-48 6l-649 1111v-1111q-23 -4 -49 -6t-50 -2q-27 0 -53 2t-47 6z" />
<glyph unicode="O" horiz-adv-x="1506" d="M126 742q0 168 38.5 309t116 243t195.5 160t279 58q162 0 279.5 -58t195 -160t115 -243t37.5 -309q0 -167 -37.5 -307.5t-115 -243t-195 -159.5t-279.5 -57q-161 0 -279 57t-195.5 159.5t-116 243t-38.5 307.5zM351 742q0 -136 25 -243.5t75 -184t125.5 -116.5t178.5 -40 t178.5 40t125.5 116.5t74.5 184t24.5 243.5q0 135 -24.5 243.5t-74.5 184t-125.5 116t-178.5 40.5t-178.5 -40.5t-125.5 -116t-75 -184t-25 -243.5z" />
<glyph unicode="P" horiz-adv-x="1170" d="M182 0v1490q31 4 73.5 8t89 7t93 5t89.5 2q114 0 216.5 -22.5t180 -79t123 -148t45.5 -230.5q0 -144 -48.5 -240.5t-128.5 -154.5t-181 -82t-207 -24q-39 0 -69 1t-65 5v-537q-50 -6 -105 -6q-25 0 -53 1t-53 5zM393 722q33 -4 58 -6t72 -2q64 0 127.5 13t113 48.5 t79.5 96.5t30 158q0 85 -26 143t-71.5 93t-109.5 49.5t-139 14.5q-77 0 -134 -6v-602z" />
<glyph unicode="Q" horiz-adv-x="1496" d="M120 742q0 168 38.5 309t115.5 243t195.5 160t278.5 58q162 0 280 -58t195.5 -160t115 -243t37.5 -309q0 -167 -37.5 -307.5t-115 -243t-195.5 -159.5t-280 -57q-161 0 -279 57t-195 159.5t-115.5 243t-38.5 307.5zM345 742q0 -136 25 -243.5t74.5 -184t125 -116.5 t178.5 -40t179 40t126 116.5t74.5 184t24.5 243.5q0 135 -24.5 243.5t-74.5 184t-125.5 116t-179.5 40.5q-103 0 -178.5 -40.5t-125 -116t-74.5 -184t-25 -243.5zM886 -229q4 57 12 94.5t24 82.5l474 -82q-2 -48 -9 -94.5t-26 -89.5z" />
<glyph unicode="R" horiz-adv-x="1234" d="M186 0v1490q45 4 82.5 8t74 7t76 5t86.5 2q105 0 208.5 -20.5t184.5 -72t131.5 -139.5t50.5 -223q0 -80 -27 -146.5t-68.5 -118.5t-94.5 -90t-102 -63l-24 -12l432 -627q-56 -6 -126 -6q-56 0 -113 6l-475 689v8l17 4q55 14 117.5 39.5t115 65.5t87.5 97t35 137 q0 149 -87.5 221.5t-237.5 72.5q-35 0 -65 -2t-67 -6v-1326q-23 -2 -51 -4t-52 -2q-25 0 -54 1t-54 5z" />
<glyph unicode="S" horiz-adv-x="1127" d="M95 39q4 46 18.5 93.5t30.5 92.5q69 -25 143.5 -43t182.5 -18q169 0 253 69t84 187q0 58 -17.5 99.5t-53 71t-88 55t-123.5 53.5l-118 47q-60 26 -109.5 55.5t-85.5 73t-57 100.5t-21 136q0 188 128.5 294.5t359.5 106.5q99 0 188.5 -16.5t157.5 -41.5q-11 -86 -46 -171 q-55 20 -128.5 36.5t-166.5 16.5q-130 0 -200.5 -52.5t-70.5 -158.5q0 -43 17.5 -77t46 -60t68 -47t83.5 -37l116 -46q83 -33 147 -69.5t109.5 -85t69 -114.5t23.5 -155q0 -213 -147 -336t-411 -123q-64 0 -116 4.5t-96.5 12.5t-86 20.5t-84.5 26.5z" />
<glyph unicode="T" horiz-adv-x="1087" d="M43 1396q0 23 2 47t7 45h984q4 -20 6 -43.5t2 -46.5t-2 -48.5t-6 -46.5h-387v-1303q-47 -6 -103 -6q-57 0 -108 6v1303h-386q-5 20 -7 45.5t-2 47.5z" />
<glyph unicode="U" horiz-adv-x="1393" d="M168 606v882q49 6 107 6q55 0 104 -6v-845q0 -128 16.5 -219t53.5 -148t98 -83.5t150 -26.5t149 26.5t97.5 83.5t54 148t16.5 219v845q52 6 105 6q58 0 107 -6v-882q0 -148 -27.5 -266.5t-91 -199t-164.5 -123t-246 -42.5t-246.5 42.5t-164.5 123t-90.5 199t-27.5 266.5z " />
<glyph unicode="V" horiz-adv-x="1300" d="M45 1488q24 4 55.5 6t61.5 2q27 0 58.5 -2t58.5 -6l376 -1273l375 1273q56 6 114 6q28 0 57.5 -1t53.5 -5l-483 -1488q-28 -4 -60.5 -6t-62.5 -2q-29 0 -60.5 2t-61.5 6z" />
<glyph unicode="W" horiz-adv-x="1904" d="M56 1488q23 4 56.5 6t63.5 2q29 0 59 -2t55 -6l254 -1240l306 1240q26 4 55.5 6t56.5 2q25 0 55.5 -2t54.5 -6l308 -1253l258 1253q23 4 49 6t50 2q29 0 59 -2t53 -6l-357 -1488q-25 -4 -58.5 -6t-59.5 -2q-30 0 -64.5 2t-64.5 6l-294 1165l-298 -1165q-29 -4 -62.5 -6 t-63.5 -2q-25 0 -57 2t-56 6z" />
<glyph unicode="X" horiz-adv-x="1259" d="M43 0l369 778l-311 707q31 4 58 5.5t56 1.5q56 0 110 -7l295 -707l-353 -778q-60 -6 -109 -6q-52 0 -115 6zM637 778l296 707q23 2 43.5 4.5t43.5 2.5h56q23 0 39 -1t39 -6l-310 -701l370 -784q-62 -6 -113 -6q-46 0 -110 6z" />
<glyph unicode="Y" horiz-adv-x="1224" d="M37 1488q28 4 58.5 6t62.5 2q27 0 58.5 -2t56.5 -6l347 -740l344 740q27 4 53.5 6t56.5 2q29 0 57.5 -2t56.5 -6l-466 -944v-544q-27 -4 -54 -6t-54 -2t-55 2t-50 6v544z" />
<glyph unicode="Z" horiz-adv-x="1170" d="M49 18l750 1285h-657q-4 18 -6 43.5t-2 47.5q0 23 2 48t6 46h967l14 -19l-750 -1285h697q4 -18 6 -44t2 -49t-2 -48t-6 -43h-1008z" />
<glyph unicode="[" horiz-adv-x="659" d="M103 -347v1919h445q4 -24 6.5 -43t2.5 -41q0 -24 -2.5 -44.5t-6.5 -38.5h-242v-1585h242q4 -20 6.5 -40t2.5 -43t-2.5 -43.5t-6.5 -40.5h-445z" />
<glyph unicode="\" horiz-adv-x="851" d="M67 1488q23 4 49 6t52 2q25 0 51.5 -2t49.5 -6l503 -1488q-26 -4 -50.5 -6t-46.5 -2q-28 0 -53.5 2t-50.5 6z" />
<glyph unicode="]" horiz-adv-x="659" d="M103 -263q0 48 9 83h242v1583h-242q-4 16 -6.5 32.5t-2.5 33.5q0 55 9 103h445v-1919h-445q-8 39 -9 84z" />
<glyph unicode="^" horiz-adv-x="1137" d="M126 762l336 726q25 4 52.5 6t50.5 2q27 0 54.5 -2t57.5 -6l330 -726q-29 -4 -52.5 -5.5t-46.5 -1.5h-47t-46 5l-252 553l-243 -553q-23 -5 -47.5 -5h-47.5q-20 0 -44.5 1.5t-54.5 5.5z" />
<glyph unicode="_" horiz-adv-x="1044" d="M2 -103q0 16 2 35t8 37h1022q8 -36 8 -76q0 -39 -8 -75h-1022q-6 20 -8 39t-2 40z" />
<glyph unicode="`" horiz-adv-x="1034" d="M267 1492q31 4 62 6t68 2q33 0 67.5 -2t64.5 -6l239 -263q-48 -8 -97 -9q-32 0 -59.5 2t-50.5 7z" />
<glyph unicode="a" horiz-adv-x="1068" d="M99 314q0 89 36.5 156t98.5 112t143 67t169 22q67 0 109 -3.5t71 -7.5v39q0 122 -62 169.5t-180 47.5q-73 0 -135.5 -11t-123.5 -30q-39 68 -39 163q71 24 155.5 36t163.5 12q207 0 314.5 -94t107.5 -301v-664q-73 -16 -176.5 -34t-210.5 -18q-101 0 -183 18.5t-138.5 60 t-88 105.5t-31.5 155zM304 318q0 -61 22.5 -96.5t57 -54.5t76 -23t77.5 -4q48 0 99 6t90 16v337q-31 4 -78.5 8t-80.5 4q-129 0 -196 -47.5t-67 -145.5z" />
<glyph unicode="b" horiz-adv-x="1220" d="M164 33v1483q23 4 50.5 6t50.5 2t51.5 -2t52.5 -6v-583q37 62 115.5 107.5t190.5 45.5q95 0 175.5 -31t138 -96t90 -165.5t32.5 -236.5q0 -273 -154 -427.5t-444 -154.5q-91 0 -187.5 17.5t-161.5 40.5zM369 172q37 -12 79 -18t87 -6q77 0 142 24.5t112.5 73t76 123.5 t28.5 179q0 172 -60 267t-199 95q-47 0 -94 -15.5t-86 -49.5t-62.5 -91t-23.5 -138v-444z" />
<glyph unicode="c" horiz-adv-x="987" d="M103 529q0 118 33.5 219.5t98.5 176t162 118t225 43.5q87 0 153.5 -10t126.5 -34q0 -35 -9.5 -81.5t-25.5 -81.5q-101 35 -232 35q-159 0 -238 -105.5t-79 -279.5q0 -199 89.5 -291t243.5 -92q62 0 115 9t107 29q16 -29 28.5 -72t14.5 -89q-122 -47 -279 -48 q-264 0 -399 150t-135 404z" />
<glyph unicode="d" horiz-adv-x="1212" d="M107 511q0 128 38.5 233.5t109 181t168.5 117t218 41.5q54 0 109 -8t96 -22v462q24 4 52.5 6t48.5 2q24 0 51.5 -2t49.5 -6v-1487q-78 -23 -175 -38.5t-218 -15.5q-112 0 -212 28t-174 92.5t-118 165.5t-44 250zM325 511q2 -197 93 -282t248 -85q53 0 99 6t81 16v715 q-41 16 -89 24.5t-104 8.5q-84 0 -146.5 -31t-102.5 -85t-59.5 -127t-19.5 -160z" />
<glyph unicode="e" horiz-adv-x="1149" d="M101 523q0 118 30.5 220.5t92.5 178t156 120t222 44.5q110 0 192.5 -37.5t138.5 -102.5t84.5 -155t28.5 -195q0 -29 -2 -61t-4 -55h-722q4 -174 90 -255t254 -81q146 0 279 53q16 -31 27 -75.5t13 -88.5q-69 -29 -151 -43.5t-181 -14.5q-144 0 -247.5 40.5t-170.5 114 t-98.5 173.5t-31.5 220zM320 633h524q0 58 -15.5 110.5t-46 92t-76.5 63t-110 23.5q-126 0 -193.5 -76t-82.5 -213z" />
<glyph unicode="f" horiz-adv-x="764" d="M56 981q0 45 8 81h174v73q0 197 98 299.5t286 102.5q52 0 91 -5.5t75 -15.5q-4 -52 -11 -89t-19 -77q-21 4 -49 10t-68 6q-45 0 -81.5 -10t-62 -35.5t-40.5 -72t-15 -119.5v-67h272q6 -42 6 -85q0 -40 -6 -77h-272v-900q-23 -4 -50.5 -6t-50.5 -2t-51.5 2t-51.5 6v900 h-174q-8 33 -8 81z" />
<glyph unicode="g" horiz-adv-x="1143" d="M77 -240q0 84 45.5 152t117.5 106q-41 27 -69.5 67.5t-28.5 100.5q0 77 34.5 133t92.5 99q-69 48 -110 123t-41 171q0 79 29 147t84 118.5t135 79.5t184 29q93 0 168.5 -27t129.5 -68q42 33 112 55t155 22q8 -40 8 -87q0 -24 -2 -48.5t-6 -49.5h-186q23 -36 35.5 -76.5 t12.5 -94.5q0 -85 -31.5 -153.5t-88 -117t-135.5 -74.5t-172 -26q-84 0 -153 19q-29 -17 -57 -51t-28 -74q0 -37 27 -65t121 -30l274 -4q184 -4 267 -78t83 -204q0 -85 -43.5 -152.5t-120 -116.5t-181 -74.5t-226.5 -25.5q-213 0 -324.5 66t-111.5 209zM269 -201 q0 -45 18.5 -74t53 -46.5t81 -25t101.5 -7.5q166 0 259 55t93 137q0 62 -39.5 95.5t-144.5 35.5l-235 4h-7q-88 0 -133 -49q-47 -52 -47 -125zM333 712q0 -97 52.5 -159.5t164.5 -62.5q113 0 166.5 62t53.5 160q0 99 -54 162t-166 63t-164.5 -63t-52.5 -162z" />
<glyph unicode="h" horiz-adv-x="1194" d="M164 0v1516q23 4 50.5 6t50.5 2t51.5 -2t52.5 -6v-616q18 29 45.5 62t68 60.5t93.5 45.5t117 18q182 0 269.5 -104.5t87.5 -308.5v-673q-23 -4 -50 -6t-51 -2q-23 0 -50.5 2t-50.5 6v616q0 147 -49 216.5t-148 69.5q-55 0 -107 -19.5t-91 -62t-61.5 -111t-22.5 -165.5 v-544q-24 -4 -52.5 -6t-51.5 -2q-21 0 -50 2t-51 6z" />
<glyph unicode="i" horiz-adv-x="594" d="M85 981q0 20 2 41.5t6 39.5h335v-1062q-23 -4 -51 -6t-50 -2q-20 0 -48.5 2t-51.5 6v900h-134q-4 16 -6 38t-2 43zM176 1400q0 23 1 52t5 52q27 4 58 6t54 2t54 -2t55 -6q4 -23 5.5 -52t1.5 -52t-1.5 -51.5t-5.5 -53.5q-25 -4 -55 -6t-52 -2q-25 0 -56 2t-58 6 q-4 25 -5 54t-1 51z" />
<glyph unicode="j" horiz-adv-x="598" d="M-83 -360q2 40 10.5 81t23.5 74q49 -16 116 -16q27 0 56 4t53.5 21.5t40.5 53t16 97.5v945h-134q-4 16 -6 38t-2 43q0 20 2 41.5t6 39.5h335v-1122q0 -93 -24.5 -155t-69 -100.5t-104.5 -55t-131 -16.5q-112 0 -188 27zM176 1400q0 23 2 49t6 53q27 4 58 7t54 3t53 -3 t54 -7q4 -27 6.5 -53t2.5 -49t-2.5 -48.5t-6.5 -54.5q-25 -4 -55 -7t-52 -3q-23 0 -54 3t-58 7q-4 29 -6 55t-2 48z" />
<glyph unicode="k" horiz-adv-x="1062" d="M158 0v1516q23 4 50 6t51 2q23 0 51.5 -2t51.5 -6v-1516q-24 -4 -52 -6t-51 -2q-24 0 -51.5 2t-49.5 6zM418 550l337 512q28 4 54 6t56 2q31 0 58.5 -2t57.5 -6l-338 -497l395 -565q-29 -4 -56 -6t-55 -2q-29 0 -58.5 2t-57.5 6z" />
<glyph unicode="l" horiz-adv-x="616" d="M162 275v1241q23 4 50.5 6t50.5 2t50.5 -2t50.5 -6v-1196q0 -57 10.5 -90t28 -50.5t41.5 -22.5t50 -5q18 0 42.5 2t40.5 6q18 -73 19 -158q-29 -10 -70.5 -13t-77.5 -3q-59 0 -110.5 14t-91 47.5t-62 89t-22.5 138.5z" />
<glyph unicode="m" horiz-adv-x="1765" d="M166 0v1062q23 4 44 6t45 2q23 0 42 -2t42 -6q6 -32 12.5 -82.5t6.5 -85.5q18 37 46 71t66.5 60.5t88 43.5t110.5 17q124 0 191 -50.5t102 -141.5q20 35 50 70t67.5 61.5t85 43.5t108.5 17q183 0 267 -103.5t84 -305.5v-677q-23 -4 -52 -6t-52 -2t-51 2t-50 6v616 q0 143 -43.5 214.5t-142.5 71.5q-105 0 -170.5 -77t-65.5 -225v-600q-23 -4 -51 -6t-50 -2q-23 0 -51 2t-51 6v631q0 139 -41 208t-133 69q-51 0 -96.5 -22.5t-79.5 -68t-53.5 -115t-19.5 -160.5v-542q-24 -4 -51.5 -6t-50.5 -2q-24 0 -52.5 2t-50.5 6z" />
<glyph unicode="n" horiz-adv-x="1194" d="M166 0v1062q23 4 44 6t45 2q23 0 42 -2t42 -6q6 -32 12.5 -85t6.5 -87q20 35 52 70t73.5 62.5t95.5 45.5t118 18q182 0 268.5 -104.5t86.5 -308.5v-673q-23 -4 -51 -6t-52 -2q-23 0 -50.5 2t-50.5 6v616q0 147 -45 216.5t-145 69.5q-58 0 -109.5 -20.5t-91 -64t-63 -113 t-23.5 -167.5v-537q-24 -4 -51.5 -6t-50.5 -2q-24 0 -52.5 2t-50.5 6z" />
<glyph unicode="o" horiz-adv-x="1192" d="M101 529q0 118 30.5 219.5t92.5 176t155 118t217 43.5t217 -43.5t155 -118t92 -176t30 -219.5t-30 -219t-92 -175.5t-155 -117t-217 -42.5t-217 42.5t-155 117t-92.5 176t-30.5 218.5zM318 529q0 -184 67.5 -287.5t210.5 -103.5q142 0 210.5 103.5t68.5 287.5 t-68.5 286.5t-210.5 102.5q-143 0 -210.5 -102t-67.5 -287z" />
<glyph unicode="p" horiz-adv-x="1220" d="M164 -488v1550q20 4 41.5 6t44.5 2q21 0 43.5 -2t43.5 -6q2 -5 5 -26.5t6 -46.5t6.5 -48t3.5 -29q20 33 49 64t69.5 56t91 39.5t113.5 14.5q93 0 172.5 -31t136 -96t89 -165.5t32.5 -236.5q0 -273 -148 -427.5t-419 -154.5q-45 0 -93 6.5t-82 16.5v-486 q-26 -4 -53.5 -6.5t-50.5 -2.5q-24 0 -51.5 2.5t-49.5 6.5zM369 174q39 -14 80 -21t108 -7q74 0 136 24.5t106.5 74t70.5 124.5t26 179q0 166 -61 263t-200 97q-51 0 -99 -18.5t-85 -56t-59.5 -94t-22.5 -135.5v-430z" />
<glyph unicode="q" horiz-adv-x="1209" d="M107 503q0 128 40.5 235.5t115 185t181 120t239.5 42.5q116 0 198.5 -12t164.5 -36v-1526q-23 -4 -50.5 -6.5t-50.5 -2.5t-50.5 2.5t-50.5 6.5v488q-43 -10 -92 -16.5t-109 -6.5q-107 0 -204.5 26t-170.5 88.5t-117 162.5t-44 249zM320 494q0 -93 25.5 -159t70 -108.5 t104 -61.5t131.5 -19q54 0 103 9t90 19v724q-29 6 -48.5 9t-37.5 4t-35.5 2t-39.5 1q-91 0 -159 -31t-113 -87t-68 -132t-23 -170z" />
<glyph unicode="r" horiz-adv-x="768" d="M166 0v1062q23 4 43 6t43 2q24 0 46 -2t41 -6q6 -32 12.5 -82.5t6.5 -85.5q43 71 114.5 122.5t182.5 51.5q17 0 34.5 -1t30.5 -3q4 -19 6 -40t2 -43q0 -26 -3 -52.5t-7 -51.5q-16 4 -34 4h-29q-55 0 -105.5 -15.5t-91 -54.5t-64 -107.5t-23.5 -176.5v-527 q-24 -4 -51.5 -6t-50.5 -2q-24 0 -51.5 2t-51.5 6z" />
<glyph unicode="s" horiz-adv-x="940" d="M99 25q4 42 17.5 83.5t29.5 83.5q56 -23 123.5 -36.5t133.5 -13.5q47 0 90.5 11t76 31.5t52 50.5t19.5 67q0 41 -15.5 68t-41 45.5t-60 32.5t-74.5 26l-71 27q-133 49 -193 111.5t-60 167.5q0 140 100.5 223t294.5 83q81 0 159 -16t135 -36q-4 -41 -15.5 -82.5 t-27.5 -76.5q-46 16 -109 31.5t-136 15.5q-77 0 -135.5 -26.5t-58.5 -94.5q0 -35 14.5 -60t39.5 -42.5t57 -30.5t69 -25l91 -31q49 -16 93.5 -39t77 -57t52 -82.5t19.5 -117.5q0 -77 -31 -139.5t-87.5 -107t-137.5 -69.5t-178 -25q-99 0 -173.5 13.5t-139.5 36.5z" />
<glyph unicode="t" horiz-adv-x="740" d="M35 927l356 397h16v-262h270q8 -36 8 -79q0 -23 -2 -44t-6 -41h-270v-484q0 -87 7.5 -139t25.5 -79.5t47.5 -37.5t75.5 -10q35 0 66 6t56 12q14 -42 17 -85.5t3 -76.5q-41 -10 -86.5 -15t-97.5 -5q-148 0 -232 72t-84 240v602h-162z" />
<glyph unicode="u" horiz-adv-x="1186" d="M154 472v590q23 4 51 6t50 2q23 0 51.5 -2t51.5 -6v-582q0 -99 18.5 -164.5t56 -102.5t91 -52t123.5 -15q105 0 180 24v892q23 4 51 6t51 2t50.5 -2t50.5 -6v-1029q-73 -20 -172.5 -39t-208.5 -19q-101 0 -190.5 17.5t-158.5 71.5t-107.5 151t-38.5 257z" />
<glyph unicode="v" horiz-adv-x="1097" d="M35 1062q30 4 60.5 6t56.5 2q27 0 58.5 -2t54.5 -6l289 -876l292 876q24 4 52.5 6t54.5 2q24 0 52.5 -2t58.5 -6l-415 -1062q-27 -4 -53.5 -6t-49.5 -2t-48.5 2t-51.5 6z" />
<glyph unicode="w" horiz-adv-x="1602" d="M45 1062q30 4 58.5 6t52.5 2q29 0 58.5 -2t52.5 -6l207 -867l233 867q23 4 50 6t56 2q33 -2 57 -3t46 -5l232 -853l206 853q24 4 46.5 6t49.5 2q24 0 51 -2t56 -6l-316 -1062q-27 -4 -55 -6t-51 -2t-49.5 2t-53.5 6l-227 803l-238 -803q-30 -4 -57.5 -6t-49.5 -2 q-24 0 -51.5 2t-50.5 6z" />
<glyph unicode="x" horiz-adv-x="1052" d="M37 0l288 550l-250 512q47 8 107 8q29 0 57 -2t59 -6l219 -514l-265 -548q-27 -4 -52.5 -6t-51.5 -2q-29 0 -55 2t-56 6zM533 548l222 514q30 4 58.5 6t57.5 2q55 0 104 -8l-247 -505l288 -557q-29 -4 -56 -6t-56 -2q-56 0 -103 8z" />
<glyph unicode="y" horiz-adv-x="1093" d="M27 1062q28 4 56.5 5t52.5 1q28 0 60.5 -1t55.5 -5l294 -987l304 987q44 6 101 6q24 0 52.5 -1t58.5 -5l-413 -1277q-29 -85 -59.5 -143t-70 -93t-88 -49.5t-113.5 -14.5q-47 0 -93.5 7t-82.5 18q0 48 9 84.5t25 74.5q18 -6 50.5 -13t69.5 -7q27 0 51 5t44.5 20.5 t37.5 44.5t35 78l63 201q-16 0 -33.5 -1t-33.5 -1q-21 0 -44 1t-37 3z" />
<glyph unicode="z" horiz-adv-x="985" d="M60 29l558 869h-492q-6 37 -6 83q0 43 6 81h796l11 -28l-562 -870h527q6 -42 6 -85q0 -42 -6 -79h-827z" />
<glyph unicode="{" horiz-adv-x="855" d="M103 606v27q56 30 96.5 61.5t65.5 73t36 94t11 123.5q0 146 9.5 257.5t50 187.5t121 114.5t221.5 38.5h28q4 -21 6 -41t2 -42q0 -23 -2 -43t-6 -38q-78 0 -123.5 -16.5t-69.5 -55t-31 -98t-7 -146.5v-13q0 -114 -8.5 -192.5t-29 -131t-54.5 -87t-84 -59.5q50 -27 84 -61 t54.5 -86.5t29 -131t8.5 -193.5v-14q0 -85 7 -145t31 -96.5t69.5 -54.5t123.5 -18q4 -18 6 -38t2 -43q0 -20 -2 -40.5t-6 -41.5q-124 0 -205 24.5t-131 76.5t-71 132.5t-21 190.5q0 120 -4 202.5t-24.5 141.5t-63 100.5t-119.5 80.5z" />
<glyph unicode="|" horiz-adv-x="687" d="M244 -347v1952q24 4 49 6t52 2q26 0 51.5 -2t47.5 -6v-1952q-23 -4 -47 -6.5t-52 -2.5q-27 0 -52.5 2.5t-48.5 6.5z" />
<glyph unicode="}" horiz-adv-x="855" d="M103 -261q0 24 2 43t7 38q77 0 123.5 18t70 54.5t30.5 96.5t7 145v14q0 115 8.5 193.5t29 131t55 87t83.5 60.5q-49 25 -83.5 59.5t-55 87t-29 131.5t-8.5 192v13q0 87 -7 146.5t-30.5 98t-70.5 55t-123 16.5q-4 18 -6.5 38t-2.5 43t2 42t7 41h28q141 0 221.5 -38.5 t121 -114.5t50 -187.5t9.5 -257.5q0 -71 11.5 -123.5t36 -94t65 -73.5t95.5 -61v-27q-76 -39 -118 -80.5t-63 -100.5t-25 -141.5t-4 -202.5q0 -110 -20.5 -190.5t-70.5 -132.5t-132 -76.5t-205 -24.5q-4 20 -6.5 40.5t-2.5 41.5z" />
<glyph unicode="~" horiz-adv-x="985" d="M39 846q42 50 116 86t157 36q48 0 93 -13.5t92 -29t93.5 -27.5t94.5 -12q41 0 83.5 14t94.5 62q33 -32 52.5 -68t33.5 -75q-47 -47 -111 -77t-151 -30q-48 0 -94.5 12t-93 28t-93 29t-90.5 13q-49 0 -93.5 -16t-94.5 -64q-65 58 -89 132z" />
<glyph unicode="&#xa1;" horiz-adv-x="598" d="M176 947q0 30 2 59.5t6 59.5q29 4 57 6t57 2t59 -2t59 -6q4 -30 6 -58.5t2 -58.5q0 -29 -2 -57.5t-6 -58.5q-29 -4 -58 -6t-58 -2t-58 2t-58 6q-4 30 -6 57.5t-2 56.5zM186 -422l13 1040q25 4 49.5 6.5t47.5 2.5q25 0 50 -2.5t47 -6.5l14 -1040q-29 -4 -54.5 -6t-52.5 -2 q-29 0 -57 2t-57 6z" />
<glyph unicode="&#xa2;" d="M231 529q0 107 28.5 202.5t83 168.5t137.5 120.5t193 59.5v236q37 10 69 10q34 0 75 -10v-234q60 -4 112 -14.5t99 -27.5q0 -41 -10.5 -84.5t-24.5 -76.5q-52 16 -108 25.5t-121 9.5q-162 0 -243 -104.5t-81 -280.5q0 -201 91 -293t247 -92q61 0 113 9t108 29 q16 -29 28.5 -72t14.5 -90q-53 -16 -108 -27t-117 -16v-221q-33 -8 -73 -8q-18 0 -36.5 2t-34.5 6v226q-220 23 -331 167.5t-111 379.5z" />
<glyph unicode="&#xa3;" d="M186 712q0 39 6 80h147q-10 59 -19.5 121t-9.5 125q0 89 28 171t85 144t144.5 99.5t210.5 37.5q110 0 183 -17t127 -40q-4 -41 -14 -82.5t-34 -89.5q-57 26 -115 38t-135 12q-73 0 -123.5 -22.5t-81.5 -61.5t-45.5 -92t-14.5 -111q0 -63 9.5 -119.5t22.5 -112.5h386 q6 -42 6 -85q0 -39 -6 -76h-357q8 -37 13 -75.5t5 -77.5q0 -87 -18.5 -162.5t-58.5 -129.5h563q4 -23 5 -47.5t1 -45.5q0 -50 -6 -93h-877l-8 25l39 37q40 37 68.5 87t46.5 103.5t26 104t8 91.5q0 46 -5 91t-15 92h-181q-6 38 -6 81z" />
<glyph unicode="&#xa4;" d="M89 318l157 158q-35 51 -53.5 113t-18.5 131q0 71 20.5 132.5t57.5 115.5l-163 165q23 46 54 75t72 47l164 -165q51 35 112 54t129 19q69 0 130 -19t115 -54l165 165q38 -23 69.5 -52.5t52.5 -67.5l-163 -162q39 -54 61 -118.5t22 -134.5q0 -71 -22 -133t-57 -115 l157 -158q-45 -79 -118 -122l-163 162q-110 -75 -249 -75q-140 0 -249 75l-160 -159q-45 20 -74.5 52t-47.5 71zM358 720q0 -57 19.5 -107t55 -87.5t84 -59.5t103.5 -22q58 0 107 22t84 59.5t56 87t21 107.5t-21 107.5t-56 86.5t-83.5 59t-107.5 22q-55 0 -103.5 -22 t-84 -59t-55 -86.5t-19.5 -107.5z" />
<glyph unicode="&#xa5;" d="M56 1462q27 5 58.5 7t61.5 2q29 0 60 -2t56 -7l339 -625l333 625q27 5 54.5 7t57.5 2q29 0 58 -2t54 -7l-375 -670h314q6 -29 6 -66q0 -45 -6 -77h-397v-181h397q6 -30 6 -67q0 -45 -6 -76h-397v-325q-25 -4 -52 -6t-54 -2t-53.5 2t-51.5 6v325h-381q-8 25 -8 70 q0 18 2 36.5t6 36.5h381v181h-381q-8 26 -8 71q0 18 2 37t6 35h298z" />
<glyph unicode="&#xa6;" horiz-adv-x="687" d="M244 341q24 4 49 6t52 2q26 0 51.5 -2t47.5 -6v-688q-23 -4 -47 -6.5t-52 -2.5q-27 0 -52.5 2.5t-48.5 6.5v688zM244 916v689q24 4 49 6t52 2q26 0 51.5 -2t47.5 -6v-689q-41 -8 -99 -8q-27 0 -52.5 2t-48.5 6z" />
<glyph unicode="&#xa7;" horiz-adv-x="1161" d="M136 746q0 69 34.5 133t84.5 118q-32 31 -50.5 75.5t-18.5 102.5q0 70 32 128t89 98t137.5 62t179.5 22q103 0 179 -15.5t152 -40.5q0 -41 -14 -82.5t-35 -78.5q-54 23 -117 39.5t-146 16.5q-120 0 -185 -34.5t-65 -103.5q0 -67 43.5 -92.5t115.5 -49.5l257 -78 q215 -67 215 -244q0 -81 -34.5 -145t-83.5 -119q33 -32 52 -74.5t19 -101.5q0 -73 -35.5 -130t-99.5 -97.5t-154 -61t-200 -20.5q-97 0 -184 14.5t-162 41.5q15 91 53 161q55 -23 127.5 -40.5t155.5 -17.5q138 0 215 37.5t77 107.5q0 59 -48.5 87.5t-121.5 51.5 q-138 44 -228 77.5t-142 69t-73 79t-21 104.5zM325 774q0 -52 33 -84t104 -55l239 -76q10 -5 23.5 -9t33.5 -10q23 21 49 60t26 93q0 43 -29.5 75.5t-96.5 52.5l-146 46q-46 14 -88.5 24.5t-73.5 26.5q-25 -23 -49.5 -60t-24.5 -84z" />
<glyph unicode="&#xa8;" horiz-adv-x="1034" d="M192 1352q0 26 2.5 51.5t6.5 52.5q25 4 53 6t52 2q23 0 51 -2t55 -6q8 -47 8 -104q0 -25 -2 -50t-6 -53q-53 -6 -106 -6q-23 0 -51.5 1t-53.5 5q-4 28 -6.5 52.5t-2.5 50.5zM614 1352q0 26 2 51.5t6 52.5q25 4 53 6t51 2q25 0 53 -2t54 -6q6 -53 6 -104t-6 -103 q-53 -6 -105 -6q-23 0 -52 1t-54 5q-8 48 -8 103z" />
<glyph unicode="&#xa9;" horiz-adv-x="1749" d="M107 742q0 164 56 306t156.5 244t242 161t313.5 59q171 0 313 -58t242.5 -161t156 -244t55.5 -307q0 -165 -55.5 -305.5t-156 -243t-242.5 -161.5t-313 -59q-172 0 -313.5 59t-242 161.5t-156.5 243t-56 305.5zM259 742q0 -132 42 -247.5t122 -201.5t193.5 -136 t258.5 -50q144 0 258 50t194 136t122.5 201.5t42.5 247.5q0 133 -42.5 249t-122.5 202t-193.5 135.5t-258.5 49.5t-258.5 -49.5t-193.5 -135.5t-122 -202t-42 -249zM503 740q0 93 28 174t78.5 140t124 93t166.5 34q75 0 119.5 -8t93.5 -25q-2 -37 -9.5 -73.5t-23.5 -69.5 q-46 14 -82 19.5t-82 5.5q-118 0 -178.5 -77.5t-60.5 -212.5q0 -138 65 -209t178 -71q44 0 83 7t81 25q16 -29 26.5 -63t16.5 -75q-97 -44 -223 -44q-95 0 -169.5 32.5t-126 90t-78.5 136t-27 171.5z" />
<glyph unicode="&#xaa;" horiz-adv-x="1034" d="M128 881q0 72 30 125t80 87t116 50.5t140 16.5q41 0 76.5 -2t64.5 -6v27q0 91 -50 125t-147 34q-53 0 -104.5 -8t-100.5 -23q-16 29 -25 66.5t-9 72.5q56 16 126 26.5t137 10.5q169 0 257 -74.5t88 -235.5v-518q-58 -14 -145 -27.5t-174 -13.5q-176 0 -268 62t-92 205z M294 883q0 -44 19.5 -69.5t48.5 -38.5t64.5 -18t65.5 -5q77 0 143 14v252q-23 4 -56 6t-62 2q-105 0 -164 -35.5t-59 -107.5z" />
<glyph unicode="&#xab;" horiz-adv-x="1277" d="M101 552l343 457q26 4 51.5 6.5t52.5 2.5q30 0 58.5 -2t57.5 -7l-337 -455l337 -461q-30 -4 -57.5 -6t-56.5 -2q-57 0 -106 8zM622 552l343 457q26 4 51.5 6.5t52.5 2.5q30 0 58.5 -2t57.5 -7l-337 -455l337 -461q-30 -4 -57.5 -6t-56.5 -2q-57 0 -106 8z" />
<glyph unicode="&#xac;" d="M180 701q0 23 2 50t6 48h862v-578q-18 -4 -43.5 -6t-49.5 -2q-23 0 -49.5 2t-46.5 6v387h-673q-4 18 -6 44.5t-2 48.5z" />
<glyph unicode="&#xad;" horiz-adv-x="746" d="M97 579q0 23 2 48.5t6 47.5h536q4 -21 6 -47t2 -49t-2 -48.5t-6 -44.5h-536q-4 18 -6 44.5t-2 48.5z" />
<glyph unicode="&#xae;" horiz-adv-x="1749" d="M105 742q0 164 56 306t156.5 244t242 161t313.5 59q171 0 313 -58t242 -161t156 -244t56 -307q0 -165 -56 -305.5t-156 -243t-242 -161.5t-313 -59q-172 0 -313.5 59t-242 161.5t-156.5 243t-56 305.5zM259 742q0 -134 42 -249.5t121 -200.5t193.5 -135t257.5 -50 q144 0 258 50t194 135t122.5 200.5t42.5 249.5q0 133 -42.5 249t-122.5 201t-193.5 134.5t-258.5 49.5q-143 0 -257.5 -49.5t-193.5 -134.5t-121 -201t-42 -249zM618 358v796q54 6 105 10.5t110 4.5q75 0 137 -15t106.5 -43.5t70.5 -76t26 -112.5q0 -93 -45.5 -149.5 t-99.5 -83.5l217 -329q-29 -4 -52.5 -5t-46.5 -1q-43 0 -80 6l-237 368l42 18q49 24 93.5 62t44.5 98t-43.5 93t-113.5 33q-16 0 -34.5 -1t-41.5 -5v-668q-32 -7 -77 -7q-44 0 -81 7z" />
<glyph unicode="&#xaf;" horiz-adv-x="1034" d="M229 1359q0 17 2 38.5t7 37.5h558q4 -16 6.5 -36.5t2.5 -39.5q0 -18 -2 -39t-7 -37h-558q-4 16 -6.5 36.5t-2.5 39.5z" />
<glyph unicode="&#xb0;" horiz-adv-x="764" d="M83 1200q0 64 23.5 119t65 95t96 64t117.5 24q61 0 117.5 -24t97.5 -64t65 -95t24 -119q0 -62 -24 -117t-65 -95.5t-97.5 -64t-117.5 -23.5q-62 0 -117 23.5t-96.5 64t-65 95.5t-23.5 117zM231 1200q0 -71 43.5 -116.5t110.5 -45.5q66 0 111.5 45.5t45.5 116.5t-46 117.5 t-111 46.5q-67 0 -110.5 -46.5t-43.5 -117.5z" />
<glyph unicode="&#xb1;" d="M176 95q0 23 1 49t5 46h877q5 -20 7 -46.5t2 -48.5q0 -23 -2 -49t-7 -44h-877q-4 18 -5 44t-1 49zM178 728q0 50 8 91h343v377q23 4 45 6t46 2q23 0 46 -2t48 -6v-377h340q4 -23 7 -46t3 -45q0 -23 -2.5 -46.5t-7.5 -46.5h-340v-374q-25 -4 -48 -6.5t-46 -2.5 q-51 0 -91 9v374h-343q-8 42 -8 93z" />
<glyph unicode="&#xb2;" horiz-adv-x="930" d="M136 658q67 70 141 145.5t136.5 147t103 135.5t40.5 116q0 67 -49.5 90.5t-122.5 23.5q-62 0 -101.5 -10.5t-74.5 -24.5q-10 27 -21.5 65t-17.5 81q63 23 119 34.5t125 11.5q147 0 235.5 -66.5t88.5 -190.5q0 -93 -47.5 -177t-140.5 -176l-80 -81h316q2 -16 3 -35t1 -40 q0 -20 -1 -39t-3 -35h-640z" />
<glyph unicode="&#xb3;" horiz-adv-x="930" d="M162 643q4 38 15 75t26 66q54 -16 101 -26t95 -10q85 0 146 36.5t61 115.5q0 67 -53.5 97.5t-122.5 30.5q-20 0 -38.5 -1t-42.5 -7l-22 24l180 276h-290q-6 37 -6 70q0 35 6 72h529l18 -31l-203 -294q55 -6 97.5 -29.5t71 -55.5t42.5 -71.5t14 -76.5q0 -71 -29 -125.5 t-79.5 -93t-121 -58t-151.5 -19.5q-37 0 -67 2t-58 6t-55.5 10.5t-62.5 16.5z" />
<glyph unicode="&#xb4;" horiz-adv-x="1034" d="M269 1229l238 263q31 4 64 6t68 2q38 0 68.5 -2t60.5 -6l-294 -263q-24 -4 -50.5 -6.5t-59.5 -2.5q-24 0 -47 2t-48 7z" />
<glyph unicode="&#xb5;" horiz-adv-x="1246" d="M166 -488v1550q23 4 50.5 6t50.5 2t50.5 -2t51.5 -6v-555q0 -182 60.5 -270.5t192.5 -88.5q52 0 100 18t85 53.5t59 91t22 133.5v618q23 4 50.5 6t50.5 2t51 -2t50 -6v-1062q-16 -4 -36 -6t-40 -2t-42.5 2t-42.5 6q-6 25 -14.5 64t-12.5 68q-50 -68 -123.5 -112.5 t-188.5 -44.5q-141 0 -224 94v-557q-24 -4 -51 -6.5t-50 -2.5q-24 0 -50.5 2.5t-48.5 6.5z" />
<glyph unicode="&#xb6;" horiz-adv-x="1180" d="M103 1050q0 123 37.5 208.5t116 139.5t199.5 78t286 24v-1512q-103 0 -152 12v647h-25q-97 0 -181 23t-146 72.5t-98.5 126t-36.5 181.5zM900 -12v1512q103 0 152 -12v-1488q-49 -12 -152 -12z" />
<glyph unicode="&#xb7;" horiz-adv-x="497" d="M128 569q0 29 2 56.5t6 57.5q30 4 56.5 6t55.5 2q30 0 57.5 -2t56.5 -6q4 -30 6.5 -56.5t2.5 -55.5q0 -30 -2.5 -57.5t-6.5 -55.5q-30 -5 -56.5 -7.5t-55.5 -2.5t-56.5 2.5t-57.5 7.5q-4 29 -6 55.5t-2 55.5z" />
<glyph unicode="&#xb8;" horiz-adv-x="1034" d="M292 -476q2 30 7 62.5t21 57.5q62 -20 128 -21q67 0 105.5 20t38.5 63q0 42 -37.5 57.5t-96.5 15.5q-30 0 -59.5 -4t-57.5 -10l-12 10l101 274h133l-69 -169q20 4 48 4q99 0 152.5 -49.5t53.5 -128.5q0 -101 -81 -153t-219 -52q-29 0 -72 3.5t-84 19.5z" />
<glyph unicode="&#xb9;" horiz-adv-x="930" d="M164 1307l399 164h35v-691h192q8 -36 9 -73q0 -39 -9 -74h-565q-6 18 -8 35t-2 39q0 18 2 36.5t8 36.5h199v473l-193 -78q-27 27 -42 60t-25 72z" />
<glyph unicode="&#xba;" horiz-adv-x="1034" d="M134 1050q0 89 24 168t72.5 139t120 95.5t166.5 35.5t168 -35.5t120 -95.5t71 -139t24 -168q0 -88 -24 -167.5t-71 -140.5t-120 -96.5t-168 -35.5t-166.5 35.5t-120 96.5t-72.5 140.5t-24 167.5zM316 1050q0 -134 50 -211t151 -77q103 0 152 77t49 211q0 135 -49 211.5 t-152 76.5q-101 0 -151 -76t-50 -212z" />
<glyph unicode="&#xbb;" horiz-adv-x="1275" d="M89 93l339 455l-339 461q29 4 57 6.5t57 2.5q27 0 54 -2t51 -7l345 -459l-345 -457q-25 -4 -50 -7t-53 -3q-29 0 -58 3t-58 7zM608 93l339 455l-339 461q29 4 57 6.5t57 2.5q27 0 54 -2t51 -7l345 -459l-345 -457q-25 -4 -50 -7t-53 -3q-29 0 -58 3t-58 7z" />
<glyph unicode="&#xbc;" horiz-adv-x="2171" d="M135 1307l399 164h35v-691h192q8 -36 9 -73q0 -39 -9 -74h-565q-6 18 -8 35t-2 39q0 18 2 36.5t8 36.5h199v473l-193 -78q-27 27 -42 60t-25 72zM521 2l999 1462q25 5 51 7t51 2q27 0 55 -2t52 -7l-999 -1462q-29 -4 -53.5 -6t-49.5 -2q-57 0 -106 8zM1297 188l339 673 q83 -10 152 -51l-247 -502h203v164q38 6 80 6t83 -6v-164h100q4 -16 6 -34.5t2 -41.5q0 -46 -8 -71h-100v-159q-41 -6 -78 -6q-45 0 -85 6v159h-430z" />
<glyph unicode="&#xbd;" horiz-adv-x="2171" d="M129 1307l399 164h35v-691h192q8 -36 9 -73q0 -39 -9 -74h-565q-6 18 -8 35t-2 39q0 18 2 36.5t8 36.5h199v473l-193 -78q-27 27 -42 60t-25 72zM486 2l999 1462q25 5 51 7t51 2q27 0 55 -2t52 -7l-999 -1462q-29 -4 -53.5 -6t-49.5 -2q-57 0 -106 8zM1365 27 q67 70 141 145.5t136.5 147t103 135.5t40.5 116q0 67 -49.5 90.5t-122.5 23.5q-62 0 -101.5 -10.5t-74.5 -24.5q-10 27 -21.5 65t-17.5 81q63 23 119 34.5t125 11.5q147 0 235.5 -66.5t88.5 -190.5q0 -93 -47.5 -177t-140.5 -176l-80 -81h316q2 -16 3 -35t1 -40 q0 -20 -1 -39t-3 -35h-640z" />
<glyph unicode="&#xbe;" horiz-adv-x="2171" d="M176 643q4 38 15 75t26 66q54 -16 101 -26t95 -10q85 0 146 36.5t61 115.5q0 67 -53.5 97.5t-122.5 30.5q-20 0 -38.5 -1t-42.5 -7l-22 24l180 276h-290q-6 37 -6 70q0 35 6 72h529l18 -31l-203 -294q55 -6 97.5 -29.5t71 -55.5t42.5 -71.5t14 -76.5q0 -71 -29 -125.5 t-79.5 -93t-121 -58t-151.5 -19.5q-37 0 -67 2t-58 6t-55.5 10.5t-62.5 16.5zM533 2l999 1462q25 5 51 7t51 2q27 0 55 -2t52 -7l-999 -1462q-29 -4 -53.5 -6t-49.5 -2q-57 0 -106 8zM1315 205l339 673q83 -10 152 -51l-247 -502h203v164q38 6 80 6t83 -6v-164h100 q4 -16 6 -34.5t2 -41.5q0 -46 -8 -71h-100v-159q-41 -6 -78 -6q-45 0 -85 6v159h-430z" />
<glyph unicode="&#xbf;" horiz-adv-x="1008" d="M126 -20q0 105 42.5 180t99.5 126t116.5 81t97.5 43v212q47 8 102 9q23 0 47 -2t48 -7v-334q-79 -20 -141 -46.5t-105.5 -63t-66.5 -85t-23 -111.5q0 -105 79 -165.5t225 -60.5q93 0 150 13.5t117 35.5q18 -39 32 -81t20 -90q-50 -16 -92.5 -27.5t-83 -18t-81 -9.5 t-89.5 -3q-244 0 -369 110.5t-125 293.5zM458 947q0 30 2 58.5t6 58.5q27 4 55.5 6t57.5 2t62 -2t56 -6q4 -30 6 -57.5t2 -57.5q0 -29 -2 -57.5t-6 -58.5q-29 -4 -58 -7t-58 -3q-30 0 -58.5 3t-56.5 7q-4 30 -6 57.5t-2 56.5z" />
<glyph unicode="&#xc0;" horiz-adv-x="1275" d="M33 0l484 1488q27 4 58 6t64 2q30 0 60.5 -2t60.5 -6l481 -1488q-25 -4 -56 -6t-60 -2q-27 0 -55 2t-52 6l-104 343h-565l-101 -343q-27 -4 -53.5 -6t-54.5 -2q-29 0 -56.5 2t-50.5 6zM277 1835q29 4 65 7t73 3t75.5 -3t71.5 -7l218 -224q-48 -8 -106 -8q-30 0 -58.5 2 t-55.5 6zM405 527h453l-227 760z" />
<glyph unicode="&#xc1;" horiz-adv-x="1275" d="M33 0l484 1488q27 4 58 6t64 2q30 0 60.5 -2t60.5 -6l481 -1488q-25 -4 -56 -6t-60 -2q-27 0 -55 2t-52 6l-104 343h-565l-101 -343q-27 -4 -53.5 -6t-54.5 -2q-29 0 -56.5 2t-50.5 6zM405 527h453l-227 760zM466 1611l219 224q33 4 70.5 7t74.5 3q40 0 74.5 -3t64.5 -7 l-282 -224q-27 -4 -56 -6t-57 -2q-30 0 -54.5 2t-53.5 6z" />
<glyph unicode="&#xc2;" horiz-adv-x="1275" d="M33 0l484 1488q27 4 58 6t64 2q30 0 60.5 -2t60.5 -6l481 -1488q-25 -4 -56 -6t-60 -2q-27 0 -55 2t-52 6l-104 343h-565l-101 -343q-27 -4 -53.5 -6t-54.5 -2q-29 0 -56.5 2t-50.5 6zM272 1611l243 224q23 4 54 6t66 2t65 -2t57 -6l238 -224q-19 -4 -41.5 -6t-43.5 -2 h-46q-23 0 -50.5 2t-44.5 6l-134 126l-134 -126q-18 -4 -47.5 -6t-49.5 -2h-49q-20 0 -41.5 2t-41.5 6zM405 527h453l-227 760z" />
<glyph unicode="&#xc3;" horiz-adv-x="1275" d="M33 0l484 1488q27 4 58 6t64 2q30 0 60.5 -2t60.5 -6l481 -1488q-25 -4 -56 -6t-60 -2q-27 0 -55 2t-52 6l-104 343h-565l-101 -343q-27 -4 -53.5 -6t-54.5 -2q-29 0 -56.5 2t-50.5 6zM264 1777q34 37 88 71.5t121 34.5q44 0 87.5 -17t85 -35.5t81.5 -35t82 -16.5 q39 0 69 15.5t71 54.5q48 -57 69 -122q-36 -35 -89 -67t-118 -32q-46 0 -89.5 15t-84.5 35t-81.5 35.5t-80.5 15.5q-43 0 -73 -17.5t-69 -53.5q-23 30 -42 57.5t-27 61.5zM405 527h453l-227 760z" />
<glyph unicode="&#xc4;" horiz-adv-x="1275" d="M33 0l484 1488q27 4 58 6t64 2q30 0 60.5 -2t60.5 -6l481 -1488q-25 -4 -56 -6t-60 -2q-27 0 -55 2t-52 6l-104 343h-565l-101 -343q-27 -4 -53.5 -6t-54.5 -2q-29 0 -56.5 2t-50.5 6zM298 1735q0 52 6 106q29 4 56 6t52 2q27 0 56 -2t53 -6q8 -47 9 -104q0 -57 -9 -105 q-25 -4 -53 -6t-54 -2q-25 0 -53 2t-57 6q-6 52 -6 103zM405 527h453l-227 760zM738 1735q0 48 11 106q25 4 53 6t54 2t53.5 -2t56.5 -6q6 -53 6 -104q0 -53 -6 -105q-29 -4 -55.5 -6t-54.5 -2q-25 0 -53.5 2t-53.5 6q-4 27 -7.5 52t-3.5 51z" />
<glyph unicode="&#xc5;" horiz-adv-x="1275" d="M33 0l484 1483q-57 29 -91.5 83.5t-34.5 127.5q0 105 68 173.5t178 68.5q107 0 176.5 -68t69.5 -174q0 -73 -34 -127.5t-91 -83.5l483 -1483q-25 -4 -56 -6t-60 -2q-27 0 -55 2t-52 6l-106 343h-561l-103 -343q-27 -4 -53.5 -6t-54.5 -2q-29 0 -56.5 2t-50.5 6zM405 527 h453l-227 752zM523 1694q0 -60 30.5 -97.5t83.5 -37.5q54 0 82.5 37.5t28.5 97.5q0 59 -28.5 96.5t-82.5 37.5q-53 0 -83.5 -37t-30.5 -97z" />
<glyph unicode="&#xc6;" horiz-adv-x="1906" d="M-10 0l873 1488h933q4 -24 6 -46.5t2 -45.5t-2 -48.5t-6 -46.5h-606v-449h486q6 -41 6 -90q0 -24 -1 -48.5t-5 -44.5h-486v-485h622q4 -20 6 -44t2 -47t-2 -48t-6 -45h-833v347h-557l-197 -347q-29 -4 -59 -6t-59 -2q-33 0 -63 2t-54 6zM521 529h458v789h-11z" />
<glyph unicode="&#xc7;" horiz-adv-x="1277" d="M120 732q0 178 47.5 322t137.5 246.5t218 157t288 54.5q118 0 202.5 -16.5t149.5 -41.5q-5 -47 -17.5 -86.5t-32.5 -84.5q-31 10 -60 18t-62.5 14.5t-73.5 9.5t-92 3q-223 0 -350.5 -154t-127.5 -442q0 -144 35.5 -251.5t100.5 -179.5t156 -106.5t200 -34.5q89 0 160 14 t132 43q20 -43 35 -85.5t24 -88.5q-164 -66 -355 -66h-34l-35 -89q10 2 19 3.5t20 1.5q114 0 166.5 -54t52.5 -131q0 -101 -80.5 -154t-221.5 -53q-31 0 -76.5 4.5t-88.5 20.5q2 32 7 64.5t24 60.5q73 -24 130 -24q145 0 145 81q0 40 -35.5 55.5t-97.5 15.5q-29 0 -58 -3 t-60 -14l-16 19q20 51 39.5 101.5t39.5 105.5q-131 20 -233.5 81t-173.5 156t-109.5 223.5t-38.5 283.5z" />
<glyph unicode="&#xc8;" horiz-adv-x="1107" d="M182 0v1488h817q6 -42 6 -92q0 -23 -1 -47.5t-5 -45.5h-606v-426h484q4 -21 6.5 -44.5t2.5 -46.5t-2.5 -47.5t-6.5 -45.5h-484v-509h623q6 -42 6 -91q0 -23 -1 -48t-5 -45h-834zM265 1835q29 4 65 7t73 3t75.5 -3t71.5 -7l218 -224q-48 -8 -106 -8q-30 0 -58.5 2t-55.5 6 z" />
<glyph unicode="&#xc9;" horiz-adv-x="1107" d="M182 0v1488h817q6 -42 6 -92q0 -23 -1 -47.5t-5 -45.5h-606v-426h484q4 -21 6.5 -44.5t2.5 -46.5t-2.5 -47.5t-6.5 -45.5h-484v-509h623q6 -42 6 -91q0 -23 -1 -48t-5 -45h-834zM399 1611l219 224q33 4 70.5 7t74.5 3q40 0 74.5 -3t64.5 -7l-282 -224q-27 -4 -56 -6 t-57 -2q-30 0 -54.5 2t-53.5 6z" />
<glyph unicode="&#xca;" horiz-adv-x="1107" d="M182 0v1488h817q6 -42 6 -92q0 -23 -1 -47.5t-5 -45.5h-606v-426h484q4 -21 6.5 -44.5t2.5 -46.5t-2.5 -47.5t-6.5 -45.5h-484v-509h623q6 -42 6 -91q0 -23 -1 -48t-5 -45h-834zM227 1611l243 224q23 4 54 6t66 2t65 -2t57 -6l238 -224q-19 -4 -41.5 -6t-43.5 -2h-46 q-23 0 -50.5 2t-44.5 6l-134 126l-134 -126q-18 -4 -47.5 -6t-49.5 -2h-49q-20 0 -41.5 2t-41.5 6z" />
<glyph unicode="&#xcb;" horiz-adv-x="1107" d="M182 0v1488h817q6 -42 6 -92q0 -23 -1 -47.5t-5 -45.5h-606v-426h484q4 -21 6.5 -44.5t2.5 -46.5t-2.5 -47.5t-6.5 -45.5h-484v-509h623q6 -42 6 -91q0 -23 -1 -48t-5 -45h-834zM249 1735q0 52 6 106q29 4 56 6t52 2q27 0 56 -2t53 -6q8 -47 9 -104q0 -57 -9 -105 q-25 -4 -53 -6t-54 -2q-25 0 -53 2t-57 6q-6 52 -6 103zM689 1735q0 48 11 106q25 4 53 6t54 2t53.5 -2t56.5 -6q6 -53 6 -104q0 -53 -6 -105q-29 -4 -55.5 -6t-54.5 -2q-25 0 -53.5 2t-53.5 6q-4 27 -7.5 52t-3.5 51z" />
<glyph unicode="&#xcc;" horiz-adv-x="574" d="M-43 1835q29 4 65 7t73 3t75.5 -3t71.5 -7l218 -224q-48 -8 -106 -8q-30 0 -58.5 2t-55.5 6zM182 0v1488q25 4 52 6t54 2t54 -2t51 -6v-1488q-25 -4 -51 -6t-54 -2q-27 0 -55 2t-51 6z" />
<glyph unicode="&#xcd;" horiz-adv-x="574" d="M131 1611l219 224q33 4 70.5 7t74.5 3q40 0 74.5 -3t64.5 -7l-282 -224q-27 -4 -56 -6t-57 -2q-30 0 -54.5 2t-53.5 6zM182 0v1488q25 4 52 6t54 2t54 -2t51 -6v-1488q-25 -4 -51 -6t-54 -2q-27 0 -55 2t-51 6z" />
<glyph unicode="&#xce;" horiz-adv-x="574" d="M-73 1611l243 224q23 4 54 6t66 2t65 -2t57 -6l238 -224q-19 -4 -41.5 -6t-43.5 -2h-46q-23 0 -50.5 2t-44.5 6l-134 126l-134 -126q-18 -4 -47.5 -6t-49.5 -2h-49q-20 0 -41.5 2t-41.5 6zM182 0v1488q25 4 52 6t54 2t54 -2t51 -6v-1488q-25 -4 -51 -6t-54 -2 q-27 0 -55 2t-51 6z" />
<glyph unicode="&#xcf;" horiz-adv-x="574" d="M-47 1735q0 52 6 106q29 4 56 6t52 2q27 0 56 -2t53 -6q8 -47 9 -104q0 -57 -9 -105q-25 -4 -53 -6t-54 -2q-25 0 -53 2t-57 6q-6 52 -6 103zM182 0v1488q25 4 52 6t54 2t54 -2t51 -6v-1488q-25 -4 -51 -6t-54 -2q-27 0 -55 2t-51 6zM393 1735q0 48 11 106q25 4 53 6 t54 2t53.5 -2t56.5 -6q6 -53 6 -104q0 -53 -6 -105q-29 -4 -55.5 -6t-54.5 -2q-25 0 -53.5 2t-53.5 6q-4 27 -7.5 52t-3.5 51z" />
<glyph unicode="&#xd0;" horiz-adv-x="1463" d="M25 762q0 18 2 39.5t6 37.5h170v649q71 8 170 15t194 7q390 0 583.5 -198.5t193.5 -571.5q0 -389 -197.5 -577t-587.5 -188q-97 0 -192.5 7.5t-163.5 17.5v685h-170q-4 16 -6 36.5t-2 40.5zM414 174q29 -4 71 -7t90 -3q122 0 222.5 27.5t172.5 93.5t111.5 179t39.5 282 q0 156 -39.5 265.5t-110.5 178.5t-170.5 100.5t-219.5 31.5q-40 0 -86.5 -1t-80.5 -8v-474h334q4 -16 7 -37.5t3 -39.5q0 -17 -3 -39t-7 -38h-334v-511z" />
<glyph unicode="&#xd1;" horiz-adv-x="1405" d="M182 0v1488q23 4 49 6t48 2q23 0 49 -2t49 -6l647 -1117v1117q25 4 52 6t53 2q23 0 48 -2t47 -6v-1488q-23 -4 -48.5 -6t-48.5 -2t-49 2t-48 6l-649 1111v-1111q-23 -4 -49 -6t-50 -2q-27 0 -53 2t-47 6zM335 1777q34 37 88 71.5t121 34.5q44 0 87.5 -17t85 -35.5 t81.5 -35t82 -16.5q39 0 69 15.5t71 54.5q48 -57 69 -122q-36 -35 -89 -67t-118 -32q-46 0 -89.5 15t-84.5 35t-81.5 35.5t-80.5 15.5q-43 0 -73 -17.5t-69 -53.5q-23 30 -42 57.5t-27 61.5z" />
<glyph unicode="&#xd2;" horiz-adv-x="1496" d="M122 742q0 168 38.5 309t116 243t195.5 160t279 58q162 0 279.5 -58t195 -160t115 -243t37.5 -309q0 -167 -37.5 -307.5t-115 -243t-195 -159.5t-279.5 -57q-161 0 -279 57t-195.5 159.5t-116 243t-38.5 307.5zM347 742q0 -136 25 -243.5t75 -184t125.5 -116.5t178.5 -40 t178.5 40t125.5 116.5t74.5 184t24.5 243.5q0 135 -24.5 243.5t-74.5 184t-125.5 116t-178.5 40.5t-178.5 -40.5t-125.5 -116t-75 -184t-25 -243.5zM383 1835q29 4 65 7t73 3t75.5 -3t71.5 -7l218 -224q-48 -8 -106 -8q-30 0 -58.5 2t-55.5 6z" />
<glyph unicode="&#xd3;" horiz-adv-x="1496" d="M122 742q0 168 38.5 309t116 243t195.5 160t279 58q162 0 279.5 -58t195 -160t115 -243t37.5 -309q0 -167 -37.5 -307.5t-115 -243t-195 -159.5t-279.5 -57q-161 0 -279 57t-195.5 159.5t-116 243t-38.5 307.5zM347 742q0 -136 25 -243.5t75 -184t125.5 -116.5t178.5 -40 t178.5 40t125.5 116.5t74.5 184t24.5 243.5q0 135 -24.5 243.5t-74.5 184t-125.5 116t-178.5 40.5t-178.5 -40.5t-125.5 -116t-75 -184t-25 -243.5zM579 1611l219 224q33 4 70.5 7t74.5 3q40 0 74.5 -3t64.5 -7l-282 -224q-27 -4 -56 -6t-57 -2q-30 0 -54.5 2t-53.5 6z" />
<glyph unicode="&#xd4;" horiz-adv-x="1496" d="M122 742q0 168 38.5 309t116 243t195.5 160t279 58q162 0 279.5 -58t195 -160t115 -243t37.5 -309q0 -167 -37.5 -307.5t-115 -243t-195 -159.5t-279.5 -57q-161 0 -279 57t-195.5 159.5t-116 243t-38.5 307.5zM347 742q0 -136 25 -243.5t75 -184t125.5 -116.5t178.5 -40 t178.5 40t125.5 116.5t74.5 184t24.5 243.5q0 135 -24.5 243.5t-74.5 184t-125.5 116t-178.5 40.5t-178.5 -40.5t-125.5 -116t-75 -184t-25 -243.5zM383 1611l243 224q23 4 54 6t66 2t65 -2t57 -6l238 -224q-19 -4 -41.5 -6t-43.5 -2h-46q-23 0 -50.5 2t-44.5 6l-134 126 l-134 -126q-18 -4 -47.5 -6t-49.5 -2h-49q-20 0 -41.5 2t-41.5 6z" />
<glyph unicode="&#xd5;" horiz-adv-x="1496" d="M122 742q0 168 38.5 309t116 243t195.5 160t279 58q162 0 279.5 -58t195 -160t115 -243t37.5 -309q0 -167 -37.5 -307.5t-115 -243t-195 -159.5t-279.5 -57q-161 0 -279 57t-195.5 159.5t-116 243t-38.5 307.5zM347 742q0 -136 25 -243.5t75 -184t125.5 -116.5t178.5 -40 t178.5 40t125.5 116.5t74.5 184t24.5 243.5q0 135 -24.5 243.5t-74.5 184t-125.5 116t-178.5 40.5t-178.5 -40.5t-125.5 -116t-75 -184t-25 -243.5zM382 1777q34 37 88 71.5t121 34.5q44 0 87.5 -17t85 -35.5t81.5 -35t82 -16.5q39 0 69 15.5t71 54.5q48 -57 69 -122 q-36 -35 -89 -67t-118 -32q-46 0 -89.5 15t-84.5 35t-81.5 35.5t-80.5 15.5q-43 0 -73 -17.5t-69 -53.5q-23 30 -42 57.5t-27 61.5z" />
<glyph unicode="&#xd6;" horiz-adv-x="1496" d="M122 742q0 168 38.5 309t116 243t195.5 160t279 58q162 0 279.5 -58t195 -160t115 -243t37.5 -309q0 -167 -37.5 -307.5t-115 -243t-195 -159.5t-279.5 -57q-161 0 -279 57t-195.5 159.5t-116 243t-38.5 307.5zM347 742q0 -136 25 -243.5t75 -184t125.5 -116.5t178.5 -40 t178.5 40t125.5 116.5t74.5 184t24.5 243.5q0 135 -24.5 243.5t-74.5 184t-125.5 116t-178.5 40.5t-178.5 -40.5t-125.5 -116t-75 -184t-25 -243.5zM409 1735q0 52 6 106q29 4 56 6t52 2q27 0 56 -2t53 -6q8 -47 9 -104q0 -57 -9 -105q-25 -4 -53 -6t-54 -2q-25 0 -53 2 t-57 6q-6 52 -6 103zM849 1735q0 48 11 106q25 4 53 6t54 2t53.5 -2t56.5 -6q6 -53 6 -104q0 -53 -6 -105q-29 -4 -55.5 -6t-54.5 -2q-25 0 -53.5 2t-53.5 6q-4 27 -7.5 52t-3.5 51z" />
<glyph unicode="&#xd7;" d="M238 482l252 250q-64 62 -126 125l-124 126q26 37 59.5 70t71.5 62l249 -252q62 63 124.5 124t126.5 126q74 -56 130 -130q-124 -127 -251 -251q127 -124 251 -250q-27 -38 -61 -71.5t-69 -56.5l-249 248l-253 -251q-77 52 -131 131z" />
<glyph unicode="&#xd8;" horiz-adv-x="1496" d="M116 0l149 205q-73 101 -109 237.5t-36 299.5q0 168 38.5 309t115.5 243t195.5 160t278.5 58q119 0 214 -31t167 -91l71 98q16 4 35.5 6t45.5 2q27 0 47 -2t40 -6l-144 -197q77 -103 114.5 -242t37.5 -307q0 -167 -37.5 -307.5t-115 -243t-195.5 -159.5t-280 -57 q-124 0 -220 33t-170 95l-74 -103q-36 -6 -83 -6t-85 6zM345 742q0 -211 56 -349l606 831q-97 101 -259 102q-103 0 -178.5 -40.5t-125 -116t-74.5 -184t-25 -243.5zM478 269q101 -111 270 -111q103 0 179 40t126 116.5t74.5 184t24.5 243.5q0 215 -64 363z" />
<glyph unicode="&#xd9;" horiz-adv-x="1393" d="M168 606v882q49 6 107 6q55 0 104 -6v-845q0 -128 16.5 -219t53.5 -148t98 -83.5t150 -26.5t149 26.5t97.5 83.5t54 148t16.5 219v845q52 6 105 6q58 0 107 -6v-882q0 -148 -27.5 -266.5t-91 -199t-164.5 -123t-246 -42.5t-246.5 42.5t-164.5 123t-90.5 199t-27.5 266.5z M352 1835q29 4 65 7t73 3t75.5 -3t71.5 -7l218 -224q-48 -8 -106 -8q-30 0 -58.5 2t-55.5 6z" />
<glyph unicode="&#xda;" horiz-adv-x="1393" d="M168 606v882q49 6 107 6q55 0 104 -6v-845q0 -128 16.5 -219t53.5 -148t98 -83.5t150 -26.5t149 26.5t97.5 83.5t54 148t16.5 219v845q52 6 105 6q58 0 107 -6v-882q0 -148 -27.5 -266.5t-91 -199t-164.5 -123t-246 -42.5t-246.5 42.5t-164.5 123t-90.5 199t-27.5 266.5z M553 1611l219 224q33 4 70.5 7t74.5 3q40 0 74.5 -3t64.5 -7l-282 -224q-27 -4 -56 -6t-57 -2q-30 0 -54.5 2t-53.5 6z" />
<glyph unicode="&#xdb;" horiz-adv-x="1393" d="M168 606v882q49 6 107 6q55 0 104 -6v-845q0 -128 16.5 -219t53.5 -148t98 -83.5t150 -26.5t149 26.5t97.5 83.5t54 148t16.5 219v845q52 6 105 6q58 0 107 -6v-882q0 -148 -27.5 -266.5t-91 -199t-164.5 -123t-246 -42.5t-246.5 42.5t-164.5 123t-90.5 199t-27.5 266.5z M334 1611l243 224q23 4 54 6t66 2t65 -2t57 -6l238 -224q-19 -4 -41.5 -6t-43.5 -2h-46q-23 0 -50.5 2t-44.5 6l-134 126l-134 -126q-18 -4 -47.5 -6t-49.5 -2h-49q-20 0 -41.5 2t-41.5 6z" />
<glyph unicode="&#xdc;" horiz-adv-x="1393" d="M168 606v882q49 6 107 6q55 0 104 -6v-845q0 -128 16.5 -219t53.5 -148t98 -83.5t150 -26.5t149 26.5t97.5 83.5t54 148t16.5 219v845q52 6 105 6q58 0 107 -6v-882q0 -148 -27.5 -266.5t-91 -199t-164.5 -123t-246 -42.5t-246.5 42.5t-164.5 123t-90.5 199t-27.5 266.5z M360 1735q0 52 6 106q29 4 56 6t52 2q27 0 56 -2t53 -6q8 -47 9 -104q0 -57 -9 -105q-25 -4 -53 -6t-54 -2q-25 0 -53 2t-57 6q-6 52 -6 103zM800 1735q0 48 11 106q25 4 53 6t54 2t53.5 -2t56.5 -6q6 -53 6 -104q0 -53 -6 -105q-29 -4 -55.5 -6t-54.5 -2q-25 0 -53.5 2 t-53.5 6q-4 27 -7.5 52t-3.5 51z" />
<glyph unicode="&#xdd;" horiz-adv-x="1224" d="M37 1488q28 4 58.5 6t62.5 2q27 0 58.5 -2t56.5 -6l347 -740l344 740q27 4 53.5 6t56.5 2q29 0 57.5 -2t56.5 -6l-466 -944v-544q-27 -4 -54 -6t-54 -2t-55 2t-50 6v544zM472 1611l219 224q33 4 70.5 7t74.5 3q40 0 74.5 -3t64.5 -7l-282 -224q-27 -4 -56 -6t-57 -2 q-30 0 -54.5 2t-53.5 6z" />
<glyph unicode="&#xde;" horiz-adv-x="1200" d="M180 0v1488q49 6 106 6q25 0 52.5 -1t52.5 -5v-233q35 4 65 5t65 1q107 0 209.5 -23.5t183.5 -81.5t129.5 -154t48.5 -240q0 -143 -48.5 -239.5t-129.5 -153.5t-183 -80.5t-210 -23.5q-35 0 -65 1t-65 3v-269q-25 -4 -53 -5t-52 -1q-27 0 -55 1t-51 5zM391 456 q39 -5 63 -7.5t67 -2.5q64 0 127.5 13t113 48t80.5 97t31 160q0 97 -31 159t-80.5 95.5t-112.5 46.5t-128 13q-41 0 -65 -2t-65 -6v-614z" />
<glyph unicode="&#xdf;" horiz-adv-x="1182" d="M164 0v1020q0 120 20.5 215t69 162t128.5 102.5t195 35.5q101 0 173.5 -27t119 -72.5t68.5 -106.5t22 -129q0 -93 -29 -156t-64.5 -113t-64 -93.5t-28.5 -99.5q0 -43 24.5 -73t61 -54.5t79 -52t78 -63t61 -87.5t25.5 -129q0 -135 -91.5 -219.5t-271.5 -84.5 q-78 0 -137 13.5t-113 36.5q4 42 17.5 82.5t29.5 80.5q48 -23 94 -34.5t93 -11.5q71 0 121.5 30.5t50.5 113.5q0 49 -24 81t-60 56.5t-78.5 50t-79 57.5t-60 77t-23.5 116q0 73 29 125.5t63 102t63 105.5t29 135q0 81 -46.5 128.5t-135.5 47.5q-125 0 -167 -84t-42 -268 v-1016q-24 -4 -50 -6t-49 -2q-24 0 -51.5 2t-49.5 6z" />
<glyph unicode="&#xe0;" horiz-adv-x="1068" d="M99 314q0 89 36.5 156t98.5 112t143 67t169 22q67 0 109 -3.5t71 -7.5v39q0 122 -62 169.5t-180 47.5q-73 0 -135.5 -11t-123.5 -30q-39 68 -39 163q71 24 155.5 36t163.5 12q207 0 314.5 -94t107.5 -301v-664q-73 -16 -176.5 -34t-210.5 -18q-101 0 -183 18.5t-138.5 60 t-88 105.5t-31.5 155zM192 1492q31 4 62 6t68 2q33 0 67.5 -2t64.5 -6l239 -263q-48 -8 -97 -9q-32 0 -59.5 2t-50.5 7zM304 318q0 -61 22.5 -96.5t57 -54.5t76 -23t77.5 -4q48 0 99 6t90 16v337q-31 4 -78.5 8t-80.5 4q-129 0 -196 -47.5t-67 -145.5z" />
<glyph unicode="&#xe1;" horiz-adv-x="1068" d="M99 314q0 89 36.5 156t98.5 112t143 67t169 22q67 0 109 -3.5t71 -7.5v39q0 122 -62 169.5t-180 47.5q-73 0 -135.5 -11t-123.5 -30q-39 68 -39 163q71 24 155.5 36t163.5 12q207 0 314.5 -94t107.5 -301v-664q-73 -16 -176.5 -34t-210.5 -18q-101 0 -183 18.5t-138.5 60 t-88 105.5t-31.5 155zM304 318q0 -61 22.5 -96.5t57 -54.5t76 -23t77.5 -4q48 0 99 6t90 16v337q-31 4 -78.5 8t-80.5 4q-129 0 -196 -47.5t-67 -145.5zM329 1229l238 263q31 4 64 6t68 2q38 0 68.5 -2t60.5 -6l-294 -263q-24 -4 -50.5 -6.5t-59.5 -2.5q-24 0 -47 2t-48 7z " />
<glyph unicode="&#xe2;" horiz-adv-x="1068" d="M99 314q0 89 36.5 156t98.5 112t143 67t169 22q67 0 109 -3.5t71 -7.5v39q0 122 -62 169.5t-180 47.5q-73 0 -135.5 -11t-123.5 -30q-39 68 -39 163q71 24 155.5 36t163.5 12q207 0 314.5 -94t107.5 -301v-664q-73 -16 -176.5 -34t-210.5 -18q-101 0 -183 18.5t-138.5 60 t-88 105.5t-31.5 155zM172 1229l225 263q27 4 61 6t65 2q23 0 55 -2t61 -8l224 -261q-19 -4 -43 -6.5t-50 -2.5q-28 0 -59.5 2t-59.5 7l-134 165l-134 -165q-23 -4 -53 -6.5t-57 -2.5q-60 0 -101 9zM304 318q0 -61 22.5 -96.5t57 -54.5t76 -23t77.5 -4q48 0 99 6t90 16v337 q-31 4 -78.5 8t-80.5 4q-129 0 -196 -47.5t-67 -145.5z" />
<glyph unicode="&#xe3;" horiz-adv-x="1068" d="M99 314q0 89 36.5 156t98.5 112t143 67t169 22q67 0 109 -3.5t71 -7.5v39q0 122 -62 169.5t-180 47.5q-73 0 -135.5 -11t-123.5 -30q-39 68 -39 163q71 24 155.5 36t163.5 12q207 0 314.5 -94t107.5 -301v-664q-73 -16 -176.5 -34t-210.5 -18q-101 0 -183 18.5t-138.5 60 t-88 105.5t-31.5 155zM176 1382q31 41 80.5 71t117.5 30q43 0 82.5 -14.5t75.5 -31t73.5 -31t79.5 -14.5q35 0 65 12.5t73 51.5q45 -55 66 -126q-34 -39 -84.5 -68t-115.5 -29q-44 0 -83.5 14t-76.5 31t-73.5 31.5t-75.5 14.5q-42 0 -70.5 -14.5t-70.5 -50.5 q-23 30 -39 59.5t-24 63.5zM304 318q0 -61 22.5 -96.5t57 -54.5t76 -23t77.5 -4q48 0 99 6t90 16v337q-31 4 -78.5 8t-80.5 4q-129 0 -196 -47.5t-67 -145.5z" />
<glyph unicode="&#xe4;" horiz-adv-x="1068" d="M99 314q0 89 36.5 156t98.5 112t143 67t169 22q67 0 109 -3.5t71 -7.5v39q0 122 -62 169.5t-180 47.5q-73 0 -135.5 -11t-123.5 -30q-39 68 -39 163q71 24 155.5 36t163.5 12q207 0 314.5 -94t107.5 -301v-664q-73 -16 -176.5 -34t-210.5 -18q-101 0 -183 18.5t-138.5 60 t-88 105.5t-31.5 155zM217 1352q0 26 2.5 51.5t6.5 52.5q25 4 53 6t52 2q23 0 51 -2t55 -6q8 -47 8 -104q0 -25 -2 -50t-6 -53q-53 -6 -106 -6q-23 0 -51.5 1t-53.5 5q-4 28 -6.5 52.5t-2.5 50.5zM304 318q0 -61 22.5 -96.5t57 -54.5t76 -23t77.5 -4q48 0 99 6t90 16v337 q-31 4 -78.5 8t-80.5 4q-129 0 -196 -47.5t-67 -145.5zM639 1352q0 26 2 51.5t6 52.5q25 4 53 6t51 2q25 0 53 -2t54 -6q6 -53 6 -104t-6 -103q-53 -6 -105 -6q-23 0 -52 1t-54 5q-8 48 -8 103z" />
<glyph unicode="&#xe5;" horiz-adv-x="1068" d="M99 314q0 89 36.5 156t98.5 112t143 67t169 22q67 0 109 -3.5t71 -7.5v39q0 122 -62 169.5t-180 47.5q-73 0 -135.5 -11t-123.5 -30q-39 68 -39 163q71 24 155.5 36t163.5 12q207 0 314.5 -94t107.5 -301v-664q-73 -16 -176.5 -34t-210.5 -18q-101 0 -183 18.5t-138.5 60 t-88 105.5t-31.5 155zM304 318q0 -61 22.5 -96.5t57 -54.5t76 -23t77.5 -4q48 0 99 6t90 16v337q-31 4 -78.5 8t-80.5 4q-129 0 -196 -47.5t-67 -145.5zM323 1433q0 99 62 160t161 61t161 -60.5t62 -160.5q0 -99 -62 -160t-161 -61t-161 61t-62 160zM445 1433q0 -53 26 -84 t75 -31q50 0 76.5 31t26.5 84q0 54 -26.5 85t-76.5 31q-49 0 -75 -30.5t-26 -85.5z" />
<glyph unicode="&#xe6;" horiz-adv-x="1735" d="M91 314q0 89 36.5 155t98.5 109.5t142 65.5t172 22q54 0 97.5 -3t78.5 -8v44q0 122 -60 169.5t-178 47.5q-71 0 -136 -11t-123 -30q-39 68 -39 163q70 24 154 36t165 12q124 0 207.5 -40.5t139.5 -125.5q58 75 145 120.5t203 45.5q107 0 188.5 -37.5t138 -102.5t84 -155 t27.5 -195q0 -27 -2 -59t-6 -55h-710q0 -182 85 -260t258 -78q75 0 140 14t131 39q14 -31 24.5 -75.5t13.5 -88.5q-141 -57 -327 -58q-107 0 -200.5 24t-161.5 78q-67 -42 -165 -72t-211 -30q-89 0 -164.5 18.5t-129 60t-85 105.5t-31.5 155zM298 312q0 -60 22.5 -95t56 -53 t71.5 -23t71 -5q67 0 135 15t118 50q-30 49 -43 116.5t-15 135.5l-2 39q-31 4 -70.5 7.5t-74.5 3.5q-131 0 -200 -44.5t-69 -146.5zM916 635h517q0 58 -14 111t-44.5 92t-76 61.5t-106.5 22.5q-128 0 -194.5 -75t-81.5 -212z" />
<glyph unicode="&#xe7;" horiz-adv-x="987" d="M105 529q0 118 32.5 219.5t97.5 176t161 118t224 43.5q85 0 153.5 -11t128.5 -35q0 -35 -9.5 -80.5t-25.5 -80.5q-52 16 -108 25.5t-122 9.5q-161 0 -242 -104.5t-81 -280.5q0 -199 92.5 -292t244.5 -93q62 0 114 9t108 29q16 -29 28.5 -72t14.5 -90q-67 -23 -138 -34 t-158 -11l-36 -93q10 2 36 2q107 0 162 -49.5t55 -126.5q0 -103 -81 -155t-219 -52q-29 0 -72 4.5t-84 20.5q2 30 7 61.5t22 58.5q69 -23 127 -23q64 0 104 22t40 61q0 42 -37.5 58.5t-99.5 16.5q-29 0 -57.5 -4t-56.5 -10q-4 2 -12 10q40 110 79 211q-197 37 -294.5 178.5 t-97.5 362.5z" />
<glyph unicode="&#xe8;" horiz-adv-x="1151" d="M103 523q0 118 30.5 220.5t92.5 178t156 120t222 44.5q110 0 192.5 -37.5t138.5 -102.5t84.5 -155t28.5 -195q0 -29 -2 -61t-4 -55h-722q4 -174 90 -255t254 -81q146 0 279 53q16 -31 27 -75.5t13 -88.5q-69 -29 -151 -43.5t-181 -14.5q-144 0 -247.5 40.5t-170.5 114 t-98.5 173.5t-31.5 220zM275 1492q31 4 62 6t68 2q33 0 67.5 -2t64.5 -6l239 -263q-48 -8 -97 -9q-32 0 -59.5 2t-50.5 7zM322 633h524q0 58 -15.5 110.5t-46 92t-76.5 63t-110 23.5q-126 0 -193.5 -76t-82.5 -213z" />
<glyph unicode="&#xe9;" horiz-adv-x="1151" d="M103 523q0 118 30.5 220.5t92.5 178t156 120t222 44.5q110 0 192.5 -37.5t138.5 -102.5t84.5 -155t28.5 -195q0 -29 -2 -61t-4 -55h-722q4 -174 90 -255t254 -81q146 0 279 53q16 -31 27 -75.5t13 -88.5q-69 -29 -151 -43.5t-181 -14.5q-144 0 -247.5 40.5t-170.5 114 t-98.5 173.5t-31.5 220zM322 633h524q0 58 -15.5 110.5t-46 92t-76.5 63t-110 23.5q-126 0 -193.5 -76t-82.5 -213zM417 1229l238 263q31 4 64 6t68 2q38 0 68.5 -2t60.5 -6l-294 -263q-24 -4 -50.5 -6.5t-59.5 -2.5q-24 0 -47 2t-48 7z" />
<glyph unicode="&#xea;" horiz-adv-x="1151" d="M103 523q0 118 30.5 220.5t92.5 178t156 120t222 44.5q110 0 192.5 -37.5t138.5 -102.5t84.5 -155t28.5 -195q0 -29 -2 -61t-4 -55h-722q4 -174 90 -255t254 -81q146 0 279 53q16 -31 27 -75.5t13 -88.5q-69 -29 -151 -43.5t-181 -14.5q-144 0 -247.5 40.5t-170.5 114 t-98.5 173.5t-31.5 220zM247 1229l225 263q27 4 61 6t65 2q23 0 55 -2t61 -8l224 -261q-19 -4 -43 -6.5t-50 -2.5q-28 0 -59.5 2t-59.5 7l-134 165l-134 -165q-23 -4 -53 -6.5t-57 -2.5q-60 0 -101 9zM322 633h524q0 58 -15.5 110.5t-46 92t-76.5 63t-110 23.5 q-126 0 -193.5 -76t-82.5 -213z" />
<glyph unicode="&#xeb;" horiz-adv-x="1151" d="M103 523q0 118 30.5 220.5t92.5 178t156 120t222 44.5q110 0 192.5 -37.5t138.5 -102.5t84.5 -155t28.5 -195q0 -29 -2 -61t-4 -55h-722q4 -174 90 -255t254 -81q146 0 279 53q16 -31 27 -75.5t13 -88.5q-69 -29 -151 -43.5t-181 -14.5q-144 0 -247.5 40.5t-170.5 114 t-98.5 173.5t-31.5 220zM259 1352q0 26 2.5 51.5t6.5 52.5q25 4 53 6t52 2q23 0 51 -2t55 -6q8 -47 8 -104q0 -25 -2 -50t-6 -53q-53 -6 -106 -6q-23 0 -51.5 1t-53.5 5q-4 28 -6.5 52.5t-2.5 50.5zM322 633h524q0 58 -15.5 110.5t-46 92t-76.5 63t-110 23.5 q-126 0 -193.5 -76t-82.5 -213zM681 1352q0 26 2 51.5t6 52.5q25 4 53 6t51 2q25 0 53 -2t54 -6q6 -53 6 -104t-6 -103q-53 -6 -105 -6q-23 0 -52 1t-54 5q-8 48 -8 103z" />
<glyph unicode="&#xec;" horiz-adv-x="594" d="M-29 1492q31 4 62 6t68 2q33 0 67.5 -2t64.5 -6l239 -263q-48 -8 -97 -9q-32 0 -59.5 2t-50.5 7zM85 981q0 20 2 41.5t6 39.5h335v-1062q-23 -4 -51 -6t-50 -2q-20 0 -48.5 2t-51.5 6v900h-134q-4 16 -6 38t-2 43z" />
<glyph unicode="&#xed;" horiz-adv-x="594" d="M85 981q0 20 2 41.5t6 39.5h335v-1062q-23 -4 -51 -6t-50 -2q-20 0 -48.5 2t-51.5 6v900h-134q-4 16 -6 38t-2 43zM103 1229l238 263q31 4 64 6t68 2q38 0 68.5 -2t60.5 -6l-294 -263q-24 -4 -50.5 -6.5t-59.5 -2.5q-24 0 -47 2t-48 7z" />
<glyph unicode="&#xee;" horiz-adv-x="594" d="M-47 1229l225 263q27 4 61 6t65 2q23 0 55 -2t61 -8l224 -261q-19 -4 -43 -6.5t-50 -2.5q-28 0 -59.5 2t-59.5 7l-134 165l-134 -165q-23 -4 -53 -6.5t-57 -2.5q-60 0 -101 9zM85 981q0 20 2 41.5t6 39.5h335v-1062q-23 -4 -51 -6t-50 -2q-20 0 -48.5 2t-51.5 6v900h-134 q-4 16 -6 38t-2 43z" />
<glyph unicode="&#xef;" horiz-adv-x="594" d="M-25 1352q0 26 2.5 51.5t6.5 52.5q25 4 53 6t52 2q23 0 51 -2t55 -6q8 -47 8 -104q0 -25 -2 -50t-6 -53q-53 -6 -106 -6q-23 0 -51.5 1t-53.5 5q-4 28 -6.5 52.5t-2.5 50.5zM85 981q0 20 2 41.5t6 39.5h335v-1062q-23 -4 -51 -6t-50 -2q-20 0 -48.5 2t-51.5 6v900h-134 q-4 16 -6 38t-2 43zM397 1352q0 26 2 51.5t6 52.5q25 4 53 6t51 2q25 0 53 -2t54 -6q6 -53 6 -104t-6 -103q-53 -6 -105 -6q-23 0 -52 1t-54 5q-8 48 -8 103z" />
<glyph unicode="&#xf0;" horiz-adv-x="1200" d="M105 490q0 110 30.5 204t88.5 164.5t145 109.5t200 39q78 0 152.5 -26t122.5 -73q-41 110 -85.5 184.5t-111.5 127.5l-203 -126q-25 23 -43 53t-28 59l144 91q-47 23 -99 34t-110 19q-10 30 -10 73q0 23 5 50t13 49q110 -6 204 -35t173 -76l182 115q25 -20 44.5 -51 t33.5 -60q-35 -23 -71 -45t-73 -44q140 -130 212.5 -325.5t72.5 -427.5q0 -137 -30 -247.5t-91 -188t-154 -120t-219 -42.5t-219 38.5t-154 107.5t-91.5 163.5t-30.5 205.5zM320 490q0 -168 68 -262t212 -94t210.5 94t66.5 262q0 176 -66.5 264t-210.5 88q-136 0 -208 -88 t-72 -264z" />
<glyph unicode="&#xf1;" horiz-adv-x="1194" d="M166 0v1062q23 4 44 6t45 2q23 0 42 -2t42 -6q6 -32 12.5 -85t6.5 -87q20 35 52 70t73.5 62.5t95.5 45.5t118 18q182 0 268.5 -104.5t86.5 -308.5v-673q-23 -4 -51 -6t-52 -2q-23 0 -50.5 2t-50.5 6v616q0 147 -45 216.5t-145 69.5q-58 0 -109.5 -20.5t-91 -64t-63 -113 t-23.5 -167.5v-537q-24 -4 -51.5 -6t-50.5 -2q-24 0 -52.5 2t-50.5 6zM245 1382q31 41 80.5 71t117.5 30q43 0 82.5 -14.5t75.5 -31t73.5 -31t79.5 -14.5q35 0 65 12.5t73 51.5q45 -55 66 -126q-34 -39 -84.5 -68t-115.5 -29q-44 0 -83.5 14t-76.5 31t-73.5 31.5t-75.5 14.5 q-42 0 -70.5 -14.5t-70.5 -50.5q-23 30 -39 59.5t-24 63.5z" />
<glyph unicode="&#xf2;" horiz-adv-x="1192" d="M101 529q0 118 30.5 219.5t92.5 176t155 118t217 43.5t217 -43.5t155 -118t92 -176t30 -219.5t-30 -219t-92 -175.5t-155 -117t-217 -42.5t-217 42.5t-155 117t-92.5 176t-30.5 218.5zM263 1492q31 4 62 6t68 2q33 0 67.5 -2t64.5 -6l239 -263q-48 -8 -97 -9 q-32 0 -59.5 2t-50.5 7zM318 529q0 -184 67.5 -287.5t210.5 -103.5q142 0 210.5 103.5t68.5 287.5t-68.5 286.5t-210.5 102.5q-143 0 -210.5 -102t-67.5 -287z" />
<glyph unicode="&#xf3;" horiz-adv-x="1192" d="M101 529q0 118 30.5 219.5t92.5 176t155 118t217 43.5t217 -43.5t155 -118t92 -176t30 -219.5t-30 -219t-92 -175.5t-155 -117t-217 -42.5t-217 42.5t-155 117t-92.5 176t-30.5 218.5zM318 529q0 -184 67.5 -287.5t210.5 -103.5q142 0 210.5 103.5t68.5 287.5 t-68.5 286.5t-210.5 102.5q-143 0 -210.5 -102t-67.5 -287zM403 1229l238 263q31 4 64 6t68 2q38 0 68.5 -2t60.5 -6l-294 -263q-24 -4 -50.5 -6.5t-59.5 -2.5q-24 0 -47 2t-48 7z" />
<glyph unicode="&#xf4;" horiz-adv-x="1192" d="M101 529q0 118 30.5 219.5t92.5 176t155 118t217 43.5t217 -43.5t155 -118t92 -176t30 -219.5t-30 -219t-92 -175.5t-155 -117t-217 -42.5t-217 42.5t-155 117t-92.5 176t-30.5 218.5zM249 1229l225 263q27 4 61 6t65 2q23 0 55 -2t61 -8l224 -261q-19 -4 -43 -6.5 t-50 -2.5q-28 0 -59.5 2t-59.5 7l-134 165l-134 -165q-23 -4 -53 -6.5t-57 -2.5q-60 0 -101 9zM318 529q0 -184 67.5 -287.5t210.5 -103.5q142 0 210.5 103.5t68.5 287.5t-68.5 286.5t-210.5 102.5q-143 0 -210.5 -102t-67.5 -287z" />
<glyph unicode="&#xf5;" horiz-adv-x="1192" d="M101 529q0 118 30.5 219.5t92.5 176t155 118t217 43.5t217 -43.5t155 -118t92 -176t30 -219.5t-30 -219t-92 -175.5t-155 -117t-217 -42.5t-217 42.5t-155 117t-92.5 176t-30.5 218.5zM239 1382q31 41 80.5 71t117.5 30q43 0 82.5 -14.5t75.5 -31t73.5 -31t79.5 -14.5 q35 0 65 12.5t73 51.5q45 -55 66 -126q-34 -39 -84.5 -68t-115.5 -29q-44 0 -83.5 14t-76.5 31t-73.5 31.5t-75.5 14.5q-42 0 -70.5 -14.5t-70.5 -50.5q-23 30 -39 59.5t-24 63.5zM318 529q0 -184 67.5 -287.5t210.5 -103.5q142 0 210.5 103.5t68.5 287.5t-68.5 286.5 t-210.5 102.5q-143 0 -210.5 -102t-67.5 -287z" />
<glyph unicode="&#xf6;" horiz-adv-x="1192" d="M101 529q0 118 30.5 219.5t92.5 176t155 118t217 43.5t217 -43.5t155 -118t92 -176t30 -219.5t-30 -219t-92 -175.5t-155 -117t-217 -42.5t-217 42.5t-155 117t-92.5 176t-30.5 218.5zM269 1352q0 26 2.5 51.5t6.5 52.5q25 4 53 6t52 2q23 0 51 -2t55 -6q8 -47 8 -104 q0 -25 -2 -50t-6 -53q-53 -6 -106 -6q-23 0 -51.5 1t-53.5 5q-4 28 -6.5 52.5t-2.5 50.5zM318 529q0 -184 67.5 -287.5t210.5 -103.5q142 0 210.5 103.5t68.5 287.5t-68.5 286.5t-210.5 102.5q-143 0 -210.5 -102t-67.5 -287zM691 1352q0 26 2 51.5t6 52.5q25 4 53 6t51 2 q25 0 53 -2t54 -6q6 -53 6 -104t-6 -103q-53 -6 -105 -6q-23 0 -52 1t-54 5q-8 48 -8 103z" />
<glyph unicode="&#xf7;" d="M176 728q0 23 1 49t5 46h877q5 -20 7 -46.5t2 -48.5q0 -23 -2 -49t-7 -44h-877q-4 18 -5 44t-1 49zM472 360q0 57 41 100t101 43q58 0 101 -42.5t43 -100.5q0 -60 -42.5 -101.5t-101.5 -41.5q-60 0 -101 41.5t-41 101.5zM472 1107q0 60 41 101t101 41q58 0 101 -41 t43 -101t-42.5 -100.5t-101.5 -40.5q-60 0 -101 40.5t-41 100.5z" />
<glyph unicode="&#xf8;" horiz-adv-x="1192" d="M105 529q0 118 30.5 219.5t91.5 176t153 118t216 43.5q93 0 168 -26t134 -71l51 63q32 8 77 10q46 0 77 -8l-122 -152q53 -75 79 -169t26 -204q0 -118 -30 -219t-91 -175.5t-153 -117t-216 -42.5q-168 0 -282 79l-39 -52q-34 -8 -74 -8q-47 0 -79 6l105 134 q-61 75 -91.5 176.5t-30.5 218.5zM316 529q0 -142 40 -233l428 548q-71 75 -188 74q-143 0 -211.5 -102.5t-68.5 -286.5zM426 195q65 -57 170 -57q142 0 211.5 103.5t69.5 287.5q0 60 -7 110t-22 93z" />
<glyph unicode="&#xf9;" horiz-adv-x="1186" d="M154 472v590q23 4 51 6t50 2q23 0 51.5 -2t51.5 -6v-582q0 -99 18.5 -164.5t56 -102.5t91 -52t123.5 -15q105 0 180 24v892q23 4 51 6t51 2t50.5 -2t50.5 -6v-1029q-73 -20 -172.5 -39t-208.5 -19q-101 0 -190.5 17.5t-158.5 71.5t-107.5 151t-38.5 257zM267 1492 q31 4 62 6t68 2q33 0 67.5 -2t64.5 -6l239 -263q-48 -8 -97 -9q-32 0 -59.5 2t-50.5 7z" />
<glyph unicode="&#xfa;" horiz-adv-x="1186" d="M154 472v590q23 4 51 6t50 2q23 0 51.5 -2t51.5 -6v-582q0 -99 18.5 -164.5t56 -102.5t91 -52t123.5 -15q105 0 180 24v892q23 4 51 6t51 2t50.5 -2t50.5 -6v-1029q-73 -20 -172.5 -39t-208.5 -19q-101 0 -190.5 17.5t-158.5 71.5t-107.5 151t-38.5 257zM443 1229 l238 263q31 4 64 6t68 2q38 0 68.5 -2t60.5 -6l-294 -263q-24 -4 -50.5 -6.5t-59.5 -2.5q-24 0 -47 2t-48 7z" />
<glyph unicode="&#xfb;" horiz-adv-x="1186" d="M154 472v590q23 4 51 6t50 2q23 0 51.5 -2t51.5 -6v-582q0 -99 18.5 -164.5t56 -102.5t91 -52t123.5 -15q105 0 180 24v892q23 4 51 6t51 2t50.5 -2t50.5 -6v-1029q-73 -20 -172.5 -39t-208.5 -19q-101 0 -190.5 17.5t-158.5 71.5t-107.5 151t-38.5 257zM247 1229 l225 263q27 4 61 6t65 2q23 0 55 -2t61 -8l224 -261q-19 -4 -43 -6.5t-50 -2.5q-28 0 -59.5 2t-59.5 7l-134 165l-134 -165q-23 -4 -53 -6.5t-57 -2.5q-60 0 -101 9z" />
<glyph unicode="&#xfc;" horiz-adv-x="1186" d="M154 472v590q23 4 51 6t50 2q23 0 51.5 -2t51.5 -6v-582q0 -99 18.5 -164.5t56 -102.5t91 -52t123.5 -15q105 0 180 24v892q23 4 51 6t51 2t50.5 -2t50.5 -6v-1029q-73 -20 -172.5 -39t-208.5 -19q-101 0 -190.5 17.5t-158.5 71.5t-107.5 151t-38.5 257zM279 1352 q0 26 2.5 51.5t6.5 52.5q25 4 53 6t52 2q23 0 51 -2t55 -6q8 -47 8 -104q0 -25 -2 -50t-6 -53q-53 -6 -106 -6q-23 0 -51.5 1t-53.5 5q-4 28 -6.5 52.5t-2.5 50.5zM701 1352q0 26 2 51.5t6 52.5q25 4 53 6t51 2q25 0 53 -2t54 -6q6 -53 6 -104t-6 -103q-53 -6 -105 -6 q-23 0 -52 1t-54 5q-8 48 -8 103z" />
<glyph unicode="&#xfd;" horiz-adv-x="1089" d="M27 1062q28 4 56.5 5t52.5 1q28 0 60.5 -1t55.5 -5l294 -987l304 987q44 6 101 6q24 0 52.5 -1t58.5 -5l-413 -1277q-29 -85 -59.5 -143t-70 -93t-88 -49.5t-113.5 -14.5q-47 0 -93.5 7t-82.5 18q0 48 9 84.5t25 74.5q18 -6 50.5 -13t69.5 -7q27 0 51 5t44.5 20.5 t37.5 44.5t35 78l63 201q-16 0 -33.5 -1t-33.5 -1q-21 0 -44 1t-37 3zM364 1229l238 263q31 4 64 6t68 2q38 0 68.5 -2t60.5 -6l-294 -263q-24 -4 -50.5 -6.5t-59.5 -2.5q-24 0 -47 2t-48 7z" />
<glyph unicode="&#xfe;" horiz-adv-x="1220" d="M162 -488v2004q25 4 52.5 5t50.5 1t50.5 -1t50.5 -5v-589q41 62 119 110.5t196 48.5q93 0 172.5 -32t136 -97t89 -164.5t32.5 -235.5q0 -273 -148 -427.5t-421 -154.5q-43 0 -91 7.5t-85 17.5v-488q-24 -4 -52 -5t-49 -1q-24 0 -51.5 1t-51.5 5zM366 174q39 -14 81.5 -22 t106.5 -8q75 0 136.5 24t106.5 74t71 126t26 180q0 164 -60 261t-199 97q-51 0 -100 -17.5t-86 -55t-60 -94t-23 -135.5v-430z" />
<glyph unicode="&#xff;" horiz-adv-x="1089" d="M27 1062q28 4 56.5 5t52.5 1q28 0 60.5 -1t55.5 -5l294 -987l304 987q44 6 101 6q24 0 52.5 -1t58.5 -5l-413 -1277q-29 -85 -59.5 -143t-70 -93t-88 -49.5t-113.5 -14.5q-47 0 -93.5 7t-82.5 18q0 48 9 84.5t25 74.5q18 -6 50.5 -13t69.5 -7q27 0 51 5t44.5 20.5 t37.5 44.5t35 78l63 201q-16 0 -33.5 -1t-33.5 -1q-21 0 -44 1t-37 3zM221 1352q0 26 2.5 51.5t6.5 52.5q25 4 53 6t52 2q23 0 51 -2t55 -6q8 -47 8 -104q0 -25 -2 -50t-6 -53q-53 -6 -106 -6q-23 0 -51.5 1t-53.5 5q-4 28 -6.5 52.5t-2.5 50.5zM643 1352q0 26 2 51.5 t6 52.5q25 4 53 6t51 2q25 0 53 -2t54 -6q6 -53 6 -104t-6 -103q-53 -6 -105 -6q-23 0 -52 1t-54 5q-8 48 -8 103z" />
<glyph unicode="&#x152;" horiz-adv-x="1910" d="M114 742q0 168 41.5 309t122 243t201.5 160t283 58q59 0 125 -5t120 -19h793q4 -20 6 -44.5t2 -47.5t-2 -47.5t-6 -45.5h-606v-426h484q4 -21 6 -44.5t2 -46.5t-2 -47.5t-6 -45.5h-484v-509h622q4 -20 6 -44t2 -47t-2 -48t-6 -45h-798q-55 -12 -129 -18.5t-134 -6.5 q-161 0 -281 57t-199.5 159.5t-120 243t-40.5 307.5zM339 742q0 -136 26 -243.5t79 -184t130 -116.5t181 -40q69 0 124.5 6t103.5 22v1115q-48 12 -101 18.5t-118 6.5q-103 0 -182 -40.5t-133 -116t-82 -184t-28 -243.5z" />
<glyph unicode="&#x153;" horiz-adv-x="1900" d="M107 529q0 118 31.5 219.5t93.5 176t154 118t214 43.5q132 0 227 -56.5t156 -156.5q53 99 148 156t228 57q105 0 187 -38.5t137.5 -105.5t85 -156t29.5 -190q0 -29 -2 -61t-6 -55h-706q4 -174 87.5 -255t251.5 -81q75 0 140 14t131 39q14 -31 25.5 -75.5t13.5 -88.5 q-71 -29 -150 -43.5t-178 -14.5q-156 0 -262.5 58t-163.5 164q-60 -105 -152.5 -163.5t-226.5 -58.5q-122 0 -214 42.5t-154 117t-93.5 176t-31.5 218.5zM316 529q0 -184 71 -287.5t213 -103.5t214 103.5t72 287.5t-72 286.5t-214 102.5t-213 -102t-71 -287zM1086 633h513 q-2 127 -60 207t-183 80q-120 0 -187.5 -75t-82.5 -212z" />
<glyph unicode="&#x178;" horiz-adv-x="1224" d="M37 1488q28 4 58.5 6t62.5 2q27 0 58.5 -2t56.5 -6l347 -740l344 740q27 4 53.5 6t56.5 2q29 0 57.5 -2t56.5 -6l-466 -944v-544q-27 -4 -54 -6t-54 -2t-55 2t-50 6v544zM277 1735q0 52 6 106q29 4 56 6t52 2q27 0 56 -2t53 -6q8 -47 9 -104q0 -57 -9 -105q-25 -4 -53 -6 t-54 -2q-25 0 -53 2t-57 6q-6 52 -6 103zM717 1735q0 48 11 106q25 4 53 6t54 2t53.5 -2t56.5 -6q6 -53 6 -104q0 -53 -6 -105q-29 -4 -55.5 -6t-54.5 -2q-25 0 -53.5 2t-53.5 6q-4 27 -7.5 52t-3.5 51z" />
<glyph unicode="&#x2c6;" horiz-adv-x="1029" d="M170 1229l225 263q27 4 61 6t65 2q23 0 55 -2t61 -8l224 -261q-19 -4 -43 -6.5t-50 -2.5q-28 0 -59.5 2t-59.5 7l-134 165l-134 -165q-23 -4 -53 -6.5t-57 -2.5q-60 0 -101 9z" />
<glyph unicode="&#x2dc;" horiz-adv-x="1034" d="M162 1382q31 41 80.5 71t117.5 30q43 0 82.5 -14.5t75.5 -31t73.5 -31t79.5 -14.5q35 0 65 12.5t73 51.5q45 -55 66 -126q-34 -39 -84.5 -68t-115.5 -29q-44 0 -83.5 14t-76.5 31t-73.5 31.5t-75.5 14.5q-42 0 -70.5 -14.5t-70.5 -50.5q-23 30 -39 59.5t-24 63.5z" />
<glyph unicode="&#x2000;" horiz-adv-x="968" />
<glyph unicode="&#x2001;" horiz-adv-x="1936" />
<glyph unicode="&#x2002;" horiz-adv-x="968" />
<glyph unicode="&#x2003;" horiz-adv-x="1936" />
<glyph unicode="&#x2004;" horiz-adv-x="645" />
<glyph unicode="&#x2005;" horiz-adv-x="484" />
<glyph unicode="&#x2006;" horiz-adv-x="322" />
<glyph unicode="&#x2007;" horiz-adv-x="322" />
<glyph unicode="&#x2008;" horiz-adv-x="242" />
<glyph unicode="&#x2009;" horiz-adv-x="387" />
<glyph unicode="&#x200a;" horiz-adv-x="107" />
<glyph unicode="&#x2010;" horiz-adv-x="746" d="M97 579q0 23 2 48.5t6 47.5h536q4 -21 6 -47t2 -49t-2 -48.5t-6 -44.5h-536q-4 18 -6 44.5t-2 48.5z" />
<glyph unicode="&#x2011;" horiz-adv-x="746" d="M97 579q0 23 2 48.5t6 47.5h536q4 -21 6 -47t2 -49t-2 -48.5t-6 -44.5h-536q-4 18 -6 44.5t-2 48.5z" />
<glyph unicode="&#x2012;" horiz-adv-x="746" d="M97 579q0 23 2 48.5t6 47.5h536q4 -21 6 -47t2 -49t-2 -48.5t-6 -44.5h-536q-4 18 -6 44.5t-2 48.5z" />
<glyph unicode="&#x2013;" horiz-adv-x="1034" d="M-8 579q0 25 2 48.5t6 47.5h1034q4 -24 6 -46.5t2 -47.5q0 -28 -2 -51t-6 -44h-1034q-4 23 -6 47t-2 46z" />
<glyph unicode="&#x2014;" horiz-adv-x="2068" d="M-8 579q0 25 2 48.5t6 47.5h2068q5 -24 7 -46.5t2 -47.5q0 -28 -2 -51t-7 -44h-2068q-4 23 -6 47t-2 46z" />
<glyph unicode="&#x2018;" horiz-adv-x="533" d="M103 1485q25 4 53 6.5t51 2.5t49 -2t50 -7l122 -461q-23 -4 -47.5 -6t-49.5 -2q-51 0 -100 8z" />
<glyph unicode="&#x2019;" horiz-adv-x="533" d="M103 1026l122 462q25 4 51 6t49 2q25 0 52.5 -2t52.5 -6l-128 -462q-27 -6 -53 -7t-48 -1q-25 0 -49 1t-49 7z" />
<glyph unicode="&#x201a;" horiz-adv-x="533" d="M103 -233l122 460q25 4 51 7.5t49 3.5q25 0 52.5 -3.5t52.5 -7.5l-128 -460q-27 -4 -53 -5.5t-48 -1.5q-25 0 -49 1t-49 6z" />
<glyph unicode="&#x201c;" horiz-adv-x="936" d="M103 1485q25 4 53 6.5t51 2.5t49 -2t50 -7l122 -461q-23 -4 -47.5 -6t-49.5 -2q-51 0 -100 8zM506 1485q25 4 53 6.5t51 2.5t49 -2t50 -7l122 -461q-23 -4 -47.5 -6t-49.5 -2q-51 0 -100 8z" />
<glyph unicode="&#x201d;" horiz-adv-x="936" d="M103 1026l122 462q25 4 51 6t49 2q25 0 52.5 -2t52.5 -6l-128 -462q-27 -6 -53 -7t-48 -1q-25 0 -49 1t-49 7zM506 1026l122 462q25 4 51 6t49 2q25 0 52.5 -2t52.5 -6l-128 -462q-27 -6 -53 -7t-48 -1q-25 0 -49 1t-49 7z" />
<glyph unicode="&#x201e;" horiz-adv-x="936" d="M103 -233l122 460q25 4 51 7.5t49 3.5q25 0 52.5 -3.5t52.5 -7.5l-128 -460q-27 -4 -53 -5.5t-48 -1.5q-25 0 -49 1t-49 6zM506 -233l122 460q25 4 51 7.5t49 3.5q25 0 52.5 -3.5t52.5 -7.5l-128 -460q-27 -4 -53 -5.5t-48 -1.5q-25 0 -49 1t-49 6z" />
<glyph unicode="&#x2022;" horiz-adv-x="841" d="M156 774q0 55 20.5 104t56.5 85t84.5 56.5t104.5 20.5t103.5 -20.5t83.5 -56.5t57 -85t21 -104q0 -56 -21 -105t-57 -85t-83.5 -56.5t-103.5 -20.5q-55 0 -104 20.5t-85 56.5t-56.5 85t-20.5 105z" />
<glyph unicode="&#x2026;" horiz-adv-x="1516" d="M124 114q0 29 3 59t7 58q30 4 57.5 6.5t56.5 2.5q30 0 58.5 -2.5t57.5 -6.5q4 -29 7.5 -58t3.5 -57q0 -29 -3 -58t-8 -58q-30 -4 -57.5 -6t-56.5 -2t-57.5 2t-58.5 6q-4 29 -7 57t-3 57zM633 114q0 29 3 59t7 58q30 4 57.5 6.5t56.5 2.5q30 0 58.5 -2.5t57.5 -6.5 q4 -29 7.5 -58t3.5 -57q0 -29 -3 -58t-8 -58q-30 -4 -57.5 -6t-56.5 -2t-57.5 2t-58.5 6q-4 29 -7 57t-3 57zM1142 114q0 29 3 59t7 58q30 4 57.5 6.5t56.5 2.5q30 0 58.5 -2.5t57.5 -6.5q4 -29 7.5 -58t3.5 -57q0 -29 -3 -58t-8 -58q-30 -4 -57.5 -6t-56.5 -2t-57.5 2 t-58.5 6q-4 29 -7 57t-3 57z" />
<glyph unicode="&#x202f;" horiz-adv-x="387" />
<glyph unicode="&#x2039;" horiz-adv-x="754" d="M101 552l343 457q26 4 51.5 6.5t52.5 2.5q30 0 58.5 -2t57.5 -7l-337 -455l337 -461q-30 -4 -57.5 -6t-56.5 -2q-57 0 -106 8z" />
<glyph unicode="&#x203a;" horiz-adv-x="754" d="M89 93l339 455l-339 461q29 4 57 6.5t57 2.5q27 0 54 -2t51 -7l345 -459l-345 -457q-25 -4 -50 -7t-53 -3q-29 0 -58 3t-58 7z" />
<glyph unicode="&#x205f;" horiz-adv-x="484" />
<glyph unicode="&#x20ac;" d="M39 559q0 37 10 72h152q-2 20 -2 42v45v52.5t2 52.5h-152q-10 31 -10 69q0 39 10 74h172q48 244 200 383t412 139q118 0 203 -17t152 -40q-4 -47 -18 -87.5t-33 -86.5q-68 26 -139 36t-148 10q-169 0 -266.5 -86t-135.5 -251h529q4 -15 6 -32.5t2 -33.5q0 -20 -2 -40.5 t-6 -36.5h-547q-2 -25 -3 -51t-1 -54v-45t2 -42h549q4 -14 6 -30.5t2 -35.5q0 -21 -2 -40.5t-6 -36.5h-531q40 -170 142.5 -248t276.5 -78q86 0 156.5 14t132.5 41q42 -81 58 -172q-87 -37 -179 -53.5t-196 -16.5q-268 0 -421 133.5t-199 379.5h-168q-10 31 -10 71z" />
<glyph unicode="&#x2122;" horiz-adv-x="1707" d="M47 1384q0 35 7 78h625q4 -20 6 -37.5t2 -38.5q0 -18 -2 -37t-6 -38h-233v-676q-23 -4 -41 -6t-41 -2q-19 0 -38.5 2t-37.5 6v676h-234q-7 37 -7 73zM772 635l41 827q25 2 45.5 4.5t41.5 2.5q18 0 40 -2.5t47 -4.5l205 -453l202 453q23 2 42.5 4.5t40.5 2.5q20 0 42 -2.5 t44 -4.5l42 -827q-25 -4 -42.5 -6t-38.5 -2q-16 0 -35.5 1t-42.5 7l-31 528l-178 -371q-16 -4 -28.5 -5t-29.5 -1q-21 0 -60 6l-164 364l-26 -521q-39 -8 -77 -8q-39 0 -80 8z" />
<glyph unicode="&#xe000;" horiz-adv-x="1064" d="M0 0v1066h1066v-1066h-1066z" />
</font>
</defs>
</svg>
